<svg width="185" height="68" viewBox="0 0 185 68" fill="none" xmlns="http://www.w3.org/2000/svg">
<path d="M82.1989 25.14C80.8082 25.14 79.7349 24.706 78.9789 23.838C78.2322 22.9607 77.8589 21.7147 77.8589 20.1C77.8589 18.4947 78.2369 17.2533 78.9929 16.376C79.7489 15.4987 80.8175 15.06 82.1989 15.06C82.7589 15.06 83.2815 15.158 83.7669 15.354C84.2615 15.5407 84.6769 15.8067 85.0129 16.152C84.9569 16.3667 84.8635 16.5487 84.7329 16.698C84.6022 16.8473 84.4669 16.922 84.3269 16.922C84.1962 16.922 84.0749 16.88 83.9629 16.796C83.6829 16.5813 83.3982 16.4273 83.1089 16.334C82.8289 16.2313 82.5162 16.18 82.1709 16.18C81.2189 16.18 80.5002 16.5113 80.0149 17.174C79.5295 17.8273 79.2869 18.8027 79.2869 20.1C79.2869 21.3787 79.5295 22.3493 80.0149 23.012C80.5095 23.6747 81.2282 24.006 82.1709 24.006C82.6002 24.006 82.9969 23.9407 83.3609 23.81C83.7249 23.67 84.0702 23.4553 84.3969 23.166C84.5462 23.2033 84.6722 23.2827 84.7749 23.404C84.8775 23.5253 84.9289 23.6607 84.9289 23.81C84.9289 24.0433 84.8029 24.2627 84.5509 24.468C84.2989 24.664 83.9582 24.8273 83.5289 24.958C83.1089 25.0793 82.6655 25.14 82.1989 25.14ZM92.4661 22.76C92.4661 23.3013 92.4988 23.712 92.5641 23.992C92.6388 24.272 92.7648 24.5147 92.9421 24.72C92.8114 24.8227 92.6528 24.9113 92.4661 24.986C92.2794 25.0513 92.1068 25.084 91.9481 25.084C91.5188 25.084 91.2621 24.7013 91.1781 23.936C90.8981 24.3187 90.5388 24.6173 90.1001 24.832C89.6708 25.0373 89.1854 25.14 88.6441 25.14C87.9441 25.14 87.3794 24.958 86.9501 24.594C86.5301 24.23 86.3201 23.7447 86.3201 23.138C86.3201 21.4207 87.9254 20.4827 91.1361 20.324V19.778C91.1361 19.2367 91.0008 18.8353 90.7301 18.574C90.4594 18.3127 90.0394 18.182 89.4701 18.182C89.0968 18.182 88.7468 18.2567 88.4201 18.406C88.0934 18.5553 87.7201 18.8167 87.3001 19.19C87.2348 19.2367 87.1741 19.26 87.1181 19.26C86.9968 19.26 86.8661 19.1993 86.7261 19.078C86.5861 18.9473 86.4554 18.77 86.3341 18.546C86.7261 18.1073 87.2114 17.7667 87.7901 17.524C88.3688 17.2813 88.9708 17.16 89.5961 17.16C90.4921 17.16 91.1921 17.3933 91.6961 17.86C92.2094 18.3173 92.4661 18.9567 92.4661 19.778V22.76ZM88.9381 24.174C89.3674 24.174 89.7688 24.048 90.1421 23.796C90.5154 23.5347 90.8468 23.166 91.1361 22.69V21.192C88.8214 21.2947 87.6641 21.9153 87.6641 23.054C87.6641 23.418 87.7714 23.698 87.9861 23.894C88.2101 24.0807 88.5274 24.174 88.9381 24.174ZM94.7278 13.926H96.0438V25H94.7278V13.926ZM98.4739 13.926H99.7899V25H98.4739V13.926ZM109.595 25.14C108.317 25.14 107.36 24.8367 106.725 24.23C106.091 23.6233 105.773 22.7087 105.773 21.486V15.2H107.159V21.682C107.159 22.4847 107.36 23.082 107.761 23.474C108.163 23.8567 108.774 24.048 109.595 24.048C110.426 24.048 111.037 23.8567 111.429 23.474C111.821 23.0913 112.017 22.494 112.017 21.682V15.2H113.403V21.486C113.403 22.7367 113.091 23.6607 112.465 24.258C111.849 24.846 110.893 25.14 109.595 25.14ZM117.967 25.14C117.482 25.14 117.015 25.07 116.567 24.93C116.119 24.79 115.755 24.608 115.475 24.384C115.204 24.1507 115.069 23.8987 115.069 23.628C115.069 23.46 115.125 23.3153 115.237 23.194C115.358 23.0633 115.512 22.984 115.699 22.956C115.988 23.376 116.315 23.684 116.679 23.88C117.043 24.076 117.491 24.174 118.023 24.174C118.555 24.174 118.956 24.0573 119.227 23.824C119.498 23.5813 119.633 23.264 119.633 22.872C119.633 22.62 119.549 22.4147 119.381 22.256C119.222 22.088 119.017 21.9573 118.765 21.864C118.522 21.7613 118.191 21.654 117.771 21.542C117.22 21.3927 116.777 21.248 116.441 21.108C116.114 20.9587 115.83 20.744 115.587 20.464C115.354 20.1747 115.237 19.7967 115.237 19.33C115.237 18.8633 115.368 18.4667 115.629 18.14C115.89 17.8133 116.226 17.5707 116.637 17.412C117.048 17.244 117.477 17.16 117.925 17.16C118.55 17.16 119.106 17.286 119.591 17.538C120.086 17.7807 120.468 18.1213 120.739 18.56C120.627 18.7187 120.506 18.8447 120.375 18.938C120.244 19.0313 120.123 19.078 120.011 19.078C119.871 19.078 119.745 19.0127 119.633 18.882C119.185 18.3593 118.611 18.098 117.911 18.098C117.482 18.098 117.141 18.196 116.889 18.392C116.637 18.588 116.511 18.8867 116.511 19.288C116.511 19.54 116.59 19.7453 116.749 19.904C116.908 20.0533 117.108 20.1747 117.351 20.268C117.594 20.352 117.92 20.4453 118.331 20.548C118.891 20.6973 119.339 20.842 119.675 20.982C120.011 21.122 120.3 21.3413 120.543 21.64C120.786 21.9387 120.907 22.3353 120.907 22.83C120.907 23.5487 120.641 24.1133 120.109 24.524C119.586 24.9347 118.872 25.14 117.967 25.14ZM80.4069 45.386C79.6789 44.4247 79.1282 43.356 78.7549 42.18C78.3909 41.004 78.2089 39.8373 78.2089 38.68C78.2089 37.532 78.3909 36.3747 78.7549 35.208C79.1282 34.032 79.6789 32.9633 80.4069 32.002H81.5829C80.9015 33.0193 80.3929 34.0927 80.0569 35.222C79.7302 36.3513 79.5669 37.504 79.5669 38.68C79.5669 41.1533 80.2389 43.3887 81.5829 45.386H80.4069ZM86.9259 44.168C85.6939 44.168 84.7606 43.7433 84.1259 42.894C83.5006 42.0353 83.1879 40.8267 83.1879 39.268C83.1879 37.6067 83.5006 36.3233 84.1259 35.418C84.7606 34.5127 85.6939 34.06 86.9259 34.06C88.1579 34.06 89.0866 34.5127 89.7119 35.418C90.3466 36.3233 90.6639 37.6067 90.6639 39.268C90.6639 40.8267 90.3466 42.0353 89.7119 42.894C89.0866 43.7433 88.1579 44.168 86.9259 44.168ZM86.9259 43.118C87.7473 43.118 88.3539 42.782 88.7459 42.11C89.1379 41.438 89.3339 40.4907 89.3339 39.268C89.3339 37.9333 89.1379 36.9067 88.7459 36.188C88.3539 35.4693 87.7473 35.11 86.9259 35.11C85.3206 35.11 84.5179 36.496 84.5179 39.268C84.5179 41.8347 85.3206 43.118 86.9259 43.118ZM95.6076 44.168C94.3756 44.168 93.4422 43.7433 92.8076 42.894C92.1822 42.0353 91.8696 40.8267 91.8696 39.268C91.8696 37.6067 92.1822 36.3233 92.8076 35.418C93.4422 34.5127 94.3756 34.06 95.6076 34.06C96.8396 34.06 97.7682 34.5127 98.3936 35.418C99.0282 36.3233 99.3456 37.6067 99.3456 39.268C99.3456 40.8267 99.0282 42.0353 98.3936 42.894C97.7682 43.7433 96.8396 44.168 95.6076 44.168ZM95.6076 43.118C96.4289 43.118 97.0356 42.782 97.4276 42.11C97.8196 41.438 98.0156 40.4907 98.0156 39.268C98.0156 37.9333 97.8196 36.9067 97.4276 36.188C97.0356 35.4693 96.4289 35.11 95.6076 35.11C94.0022 35.11 93.1996 36.496 93.1996 39.268C93.1996 41.8347 94.0022 43.118 95.6076 43.118ZM100.957 45.386C102.301 43.3887 102.973 41.1533 102.973 38.68C102.973 37.504 102.805 36.3513 102.469 35.222C102.143 34.0927 101.639 33.0193 100.957 32.002H102.133C102.861 32.9633 103.407 34.032 103.771 35.208C104.145 36.3747 104.331 37.532 104.331 38.68C104.331 39.8373 104.145 41.004 103.771 42.18C103.407 43.356 102.861 44.4247 102.133 45.386H100.957ZM114.544 43.048V44H109.924V43.048H111.632V35.768C111.398 35.9453 111.146 36.0993 110.876 36.23C110.605 36.3513 110.358 36.412 110.134 36.412C109.928 36.412 109.765 36.356 109.644 36.244C109.522 36.132 109.462 35.978 109.462 35.782C109.462 35.642 109.485 35.5253 109.532 35.432C109.924 35.3947 110.358 35.2687 110.834 35.054C111.31 34.8393 111.73 34.5547 112.094 34.2H112.906V43.048H114.544ZM120.969 43.048V44H116.349V43.048H118.057V35.768C117.824 35.9453 117.572 36.0993 117.301 36.23C117.031 36.3513 116.783 36.412 116.559 36.412C116.354 36.412 116.191 36.356 116.069 36.244C115.948 36.132 115.887 35.978 115.887 35.782C115.887 35.642 115.911 35.5253 115.957 35.432C116.349 35.3947 116.783 35.2687 117.259 35.054C117.735 34.8393 118.155 34.5547 118.519 34.2H119.331V43.048H120.969ZM128.711 37.168C128.711 38.1013 128.357 39.03 127.647 39.954C126.938 40.8687 125.888 41.8813 124.497 42.992H128.599V44H122.593V43.314C123.807 42.3247 124.754 41.4847 125.435 40.794C126.126 40.1033 126.63 39.464 126.947 38.876C127.274 38.2787 127.437 37.672 127.437 37.056C127.437 36.468 127.283 36.0107 126.975 35.684C126.667 35.3573 126.229 35.194 125.659 35.194C124.455 35.194 123.783 35.922 123.643 37.378C123.261 37.378 122.99 37.3173 122.831 37.196C122.682 37.0747 122.607 36.874 122.607 36.594C122.607 36.174 122.729 35.782 122.971 35.418C123.223 35.0447 123.578 34.7507 124.035 34.536C124.502 34.312 125.043 34.2 125.659 34.2C126.602 34.2 127.344 34.452 127.885 34.956C128.436 35.4507 128.711 36.188 128.711 37.168ZM138.216 38.946C138.701 39.0673 139.107 39.3053 139.434 39.66C139.761 40.0053 139.924 40.5187 139.924 41.2C139.924 42.1053 139.611 42.8193 138.986 43.342C138.37 43.8647 137.539 44.126 136.494 44.126C135.859 44.126 135.299 44.0513 134.814 43.902C134.338 43.7527 133.969 43.5567 133.708 43.314C133.447 43.062 133.316 42.7913 133.316 42.502C133.316 42.278 133.391 42.1007 133.54 41.97C133.689 41.83 133.862 41.76 134.058 41.76C134.329 42.1987 134.646 42.5347 135.01 42.768C135.383 43.0013 135.892 43.118 136.536 43.118C137.208 43.118 137.726 42.95 138.09 42.614C138.454 42.2687 138.636 41.802 138.636 41.214C138.636 40.626 138.473 40.1873 138.146 39.898C137.819 39.5993 137.381 39.45 136.83 39.45L136.382 39.464C136.177 39.4827 136.013 39.492 135.892 39.492C135.733 39.492 135.593 39.408 135.472 39.24C135.36 39.0627 135.304 38.8947 135.304 38.736C135.304 38.5867 135.355 38.512 135.458 38.512H136.606C137.175 38.512 137.609 38.3627 137.908 38.064C138.216 37.7653 138.37 37.3127 138.37 36.706C138.37 36.23 138.216 35.8613 137.908 35.6C137.6 35.3293 137.147 35.194 136.55 35.194C136.027 35.194 135.603 35.3247 135.276 35.586C134.959 35.838 134.679 36.2113 134.436 36.706C134.165 36.706 133.951 36.6453 133.792 36.524C133.643 36.3933 133.568 36.216 133.568 35.992C133.568 35.74 133.694 35.474 133.946 35.194C134.198 34.914 134.553 34.6807 135.01 34.494C135.477 34.298 135.999 34.2 136.578 34.2C137.521 34.2 138.267 34.4193 138.818 34.858C139.378 35.2873 139.658 35.9033 139.658 36.706C139.658 37.2847 139.523 37.7607 139.252 38.134C138.981 38.5073 138.636 38.778 138.216 38.946ZM144.877 37.714C145.465 37.714 145.993 37.84 146.459 38.092C146.935 38.344 147.304 38.7173 147.565 39.212C147.836 39.6973 147.971 40.2853 147.971 40.976C147.971 41.592 147.836 42.138 147.565 42.614C147.304 43.0807 146.926 43.4447 146.431 43.706C145.946 43.9673 145.381 44.098 144.737 44.098C144.009 44.098 143.384 43.9253 142.861 43.58C142.348 43.2253 141.956 42.7493 141.685 42.152C141.424 41.5453 141.293 40.864 141.293 40.108C141.293 39.0253 141.494 38.0267 141.895 37.112C142.306 36.1973 142.857 35.474 143.547 34.942C144.247 34.4007 145.003 34.13 145.815 34.13C146.133 34.13 146.357 34.214 146.487 34.382C146.627 34.5407 146.697 34.7787 146.697 35.096C145.689 35.096 144.845 35.3993 144.163 36.006C143.482 36.6033 143.015 37.4153 142.763 38.442C143.043 38.2273 143.37 38.0547 143.743 37.924C144.117 37.784 144.495 37.714 144.877 37.714ZM144.765 43.09C145.381 43.09 145.853 42.894 146.179 42.502C146.515 42.1007 146.683 41.578 146.683 40.934C146.683 40.178 146.511 39.6227 146.165 39.268C145.829 38.904 145.353 38.722 144.737 38.722C144.327 38.722 143.935 38.8107 143.561 38.988C143.197 39.156 142.875 39.3847 142.595 39.674C142.586 39.7673 142.581 39.912 142.581 40.108C142.581 41.004 142.759 41.7273 143.113 42.278C143.468 42.8193 144.019 43.09 144.765 43.09ZM152.817 37.56C153.433 37.56 153.979 37.6907 154.455 37.952C154.931 38.204 155.3 38.5727 155.561 39.058C155.832 39.534 155.967 40.0987 155.967 40.752C155.967 41.788 155.669 42.6093 155.071 43.216C154.474 43.8227 153.671 44.126 152.663 44.126C152.057 44.126 151.529 44.042 151.081 43.874C150.633 43.6967 150.288 43.4727 150.045 43.202C149.812 42.9313 149.695 42.656 149.695 42.376C149.695 41.928 149.933 41.6713 150.409 41.606C150.801 42.6233 151.539 43.132 152.621 43.132C153.293 43.132 153.802 42.922 154.147 42.502C154.502 42.0727 154.679 41.508 154.679 40.808C154.679 40.052 154.502 39.492 154.147 39.128C153.802 38.764 153.307 38.582 152.663 38.582C152.234 38.582 151.865 38.666 151.557 38.834C151.249 39.002 150.969 39.2633 150.717 39.618L149.807 39.464L150.143 34.2H155.295V35.194H151.249L151.053 38.078C151.529 37.7327 152.117 37.56 152.817 37.56ZM164.696 41.76H160.44V41.116C161.336 39.8747 162.008 38.7267 162.456 37.672C162.904 36.6173 163.175 35.46 163.268 34.2C163.352 34.1813 163.473 34.172 163.632 34.172C164.239 34.172 164.542 34.494 164.542 35.138C164.542 35.9313 164.262 36.86 163.702 37.924C163.151 38.988 162.531 39.9307 161.84 40.752H164.696V38.05H165.97V40.752H167.202V41.76H165.97V44H164.696V41.76ZM172.907 38.96C173.597 39.2493 174.078 39.604 174.349 40.024C174.619 40.444 174.755 40.948 174.755 41.536C174.755 42.376 174.456 43.02 173.859 43.468C173.271 43.9067 172.459 44.126 171.423 44.126C170.396 44.126 169.584 43.9067 168.987 43.468C168.399 43.02 168.105 42.376 168.105 41.536C168.105 40.948 168.245 40.444 168.525 40.024C168.805 39.5947 169.285 39.24 169.967 38.96C169.425 38.68 169.019 38.3627 168.749 38.008C168.487 37.644 168.357 37.2007 168.357 36.678C168.357 35.9033 168.637 35.2873 169.197 34.83C169.757 34.3633 170.499 34.13 171.423 34.13C172.356 34.13 173.098 34.3633 173.649 34.83C174.199 35.2873 174.475 35.9033 174.475 36.678C174.475 37.21 174.344 37.658 174.083 38.022C173.831 38.386 173.439 38.6987 172.907 38.96ZM171.423 35.11C170.881 35.11 170.447 35.25 170.121 35.53C169.794 35.8007 169.631 36.1693 169.631 36.636C169.631 37.056 169.785 37.4247 170.093 37.742C170.41 38.05 170.853 38.302 171.423 38.498C172.095 38.2833 172.557 38.0313 172.809 37.742C173.07 37.4527 173.201 37.084 173.201 36.636C173.201 36.1693 173.037 35.8007 172.711 35.53C172.393 35.25 171.964 35.11 171.423 35.11ZM171.423 43.132C172.048 43.132 172.543 42.992 172.907 42.712C173.28 42.4227 173.467 42.0307 173.467 41.536C173.467 41.2187 173.406 40.9527 173.285 40.738C173.173 40.514 172.972 40.3087 172.683 40.122C172.393 39.9353 171.973 39.7393 171.423 39.534C170.704 39.8047 170.186 40.0893 169.869 40.388C169.551 40.6867 169.393 41.0693 169.393 41.536C169.393 42.0307 169.575 42.4227 169.939 42.712C170.303 42.992 170.797 43.132 171.423 43.132ZM179.255 34.172C180.422 34.172 181.28 34.5313 181.831 35.25C182.382 35.9687 182.657 36.9253 182.657 38.12C182.657 39.212 182.447 40.2153 182.027 41.13C181.616 42.0353 181.052 42.7587 180.333 43.3C179.614 43.832 178.821 44.098 177.953 44.098C177.636 44.098 177.407 44.0187 177.267 43.86C177.127 43.692 177.057 43.4493 177.057 43.132C178.121 43.132 179.003 42.8427 179.703 42.264C180.403 41.6853 180.888 40.8967 181.159 39.898C180.888 40.0847 180.576 40.2387 180.221 40.36C179.876 40.4813 179.516 40.542 179.143 40.542C178.2 40.542 177.435 40.2667 176.847 39.716C176.268 39.1653 175.979 38.3907 175.979 37.392C175.979 36.7667 176.124 36.2113 176.413 35.726C176.702 35.2313 177.094 34.8487 177.589 34.578C178.084 34.3073 178.639 34.172 179.255 34.172ZM179.283 39.534C180.086 39.534 180.776 39.2447 181.355 38.666C181.364 38.5447 181.369 38.3627 181.369 38.12C181.369 37.196 181.21 36.4773 180.893 35.964C180.576 35.4507 180.02 35.194 179.227 35.194C178.602 35.194 178.116 35.404 177.771 35.824C177.435 36.2347 177.267 36.776 177.267 37.448C177.267 38.148 177.44 38.6707 177.785 39.016C178.14 39.3613 178.639 39.534 179.283 39.534Z" fill="white"/>
<circle cx="31.6309" cy="31.5" r="31" fill="#111C55" stroke="#273270"/>
<path d="M24.1049 22.1408C23.9703 22.1449 23.8379 22.1743 23.7157 22.2272C23.5934 22.28 23.4837 22.3554 23.393 22.4487C23.3024 22.542 23.2326 22.6514 23.1879 22.7704C23.1432 22.8894 23.1245 23.0156 23.1328 23.1416C23.2673 25.3015 23.9013 30.5716 26.9368 33.8583C30.5718 37.8181 35.3057 39.1824 40.1626 38.9808C40.4229 38.9662 40.6676 38.8596 40.8474 38.6826C41.0271 38.5055 41.1284 38.2712 41.1309 38.0268V34.5674C41.1278 34.2446 41.0091 33.9322 40.7938 33.6802C40.5785 33.4282 40.2791 33.2513 39.9435 33.1779L37.5113 32.6739C37.2104 32.6138 36.8973 32.6397 36.6123 32.7481C36.3273 32.8566 36.0837 33.0427 35.9128 33.2823L35.3749 34.0454C35.3255 34.1153 35.2516 34.1668 35.1661 34.1911C35.0805 34.2154 34.9885 34.211 34.9061 34.1786C33.6688 33.6783 28.7389 31.5184 28.1971 27.8753C28.1865 27.805 28.1984 27.7333 28.2312 27.6692C28.264 27.6051 28.3163 27.5516 28.3816 27.5154L29.3576 26.9574C29.6253 26.802 29.8355 26.5732 29.9599 26.3022C30.0843 26.0311 30.1168 25.7308 30.053 25.4419L29.5189 23.1236C29.4409 22.7988 29.245 22.5093 28.9648 22.3045C28.6846 22.0998 28.3373 21.9923 27.982 22.0004L24.1049 22.1408Z" stroke="#F6B426"/>
</svg>
