<svg width="63" height="63" viewBox="0 0 63 63" fill="none" xmlns="http://www.w3.org/2000/svg">
<circle cx="31.5" cy="31.5001" r="31.5" fill="url(#paint0_linear_1_4264)"/>
<path d="M41 29.143H37.8579C37.4412 29.143 37.0416 29.3035 36.747 29.5893C36.4523 29.8751 36.2868 30.2626 36.2868 30.6668V34.4762C36.2868 34.8804 36.4523 35.2679 36.747 35.5537C37.0416 35.8395 37.4412 36 37.8579 36H39.4289C39.8456 36 40.2452 35.8395 40.5398 35.5537C40.8345 35.2679 41 34.8804 41 34.4762V29.143ZM41 29.143C41 27.9359 40.7536 26.7408 40.275 25.6266C39.7964 24.5123 39.095 23.501 38.2114 22.6511C37.3277 21.8011 36.2793 21.1292 35.1265 20.6743C33.9738 20.2193 32.7396 19.9903 31.4951 20.0003C30.2514 19.9915 29.0183 20.2215 27.8667 20.677C26.7151 21.1326 25.6678 21.8046 24.7852 22.6545C23.9026 23.5043 23.2021 24.5152 22.7241 25.6288C22.246 26.7424 22 27.9367 22 29.143V34.4762C22 34.8804 22.1655 35.2679 22.4602 35.5537C22.7548 35.8395 23.1544 36 23.5711 36H25.1421C25.5588 36 25.9584 35.8395 26.253 35.5537C26.5477 35.2679 26.7132 34.8804 26.7132 34.4762V30.6668C26.7132 30.2626 26.5477 29.8751 26.253 29.5893C25.9584 29.3035 25.5588 29.143 25.1421 29.143H22" stroke="#1C1F35" stroke-width="2" stroke-linecap="round" stroke-linejoin="round"/>
<path d="M41 35V37.1429C41 37.9006 40.661 38.6273 40.0575 39.1632C39.454 39.699 38.6356 40 37.7821 40H32" stroke="#1C1F35" stroke-width="2" stroke-linecap="round" stroke-linejoin="round"/>
<defs>
<linearGradient id="paint0_linear_1_4264" x1="-1.78608" y1="13.65" x2="77.4684" y2="19.2783" gradientUnits="userSpaceOnUse">
<stop stop-color="#FFB629"/>
<stop offset="0.507189" stop-color="#FFDA56"/>
<stop offset="1" stop-color="#FFD7A6"/>
</linearGradient>
</defs>
</svg>
