<svg width="228" height="64" viewBox="0 0 228 64" fill="none" xmlns="http://www.w3.org/2000/svg">
<path d="M84.2429 24.45C84.2429 24.87 84.1915 25.15 84.0889 25.29C83.9955 25.43 83.8042 25.5 83.5149 25.5H78.2369V15.7H84.1869V16.75H79.6369V19.942H83.5149V21.006H79.6369V24.45H84.2429ZM94.2608 17.66C94.9515 17.66 95.5068 17.8747 95.9268 18.304C96.3468 18.7333 96.5568 19.3027 96.5568 20.012V25.5H95.2128V20.054C95.2128 19.5407 95.1102 19.172 94.9048 18.948C94.7088 18.7147 94.3822 18.598 93.9248 18.598C93.2342 18.598 92.5948 18.92 92.0068 19.564C92.0162 19.6293 92.0208 19.7227 92.0208 19.844V25.5H90.7048V19.914C90.7048 19.494 90.5975 19.172 90.3828 18.948C90.1682 18.7147 89.8648 18.598 89.4728 18.598C89.1275 18.598 88.7915 18.6867 88.4648 18.864C88.1475 19.032 87.8208 19.298 87.4848 19.662V25.5H86.1548V20.46C86.1548 19.1067 86.0988 18.29 85.9868 18.01C86.1455 17.9353 86.3088 17.8747 86.4768 17.828C86.6542 17.772 86.8082 17.744 86.9388 17.744C87.1255 17.744 87.2608 17.8187 87.3448 17.968C87.4288 18.108 87.4755 18.3367 87.4848 18.654C87.8302 18.3087 88.1895 18.0567 88.5628 17.898C88.9362 17.7393 89.3608 17.66 89.8368 17.66C90.2662 17.66 90.6488 17.758 90.9848 17.954C91.3208 18.1407 91.5775 18.402 91.7548 18.738C92.1002 18.3647 92.4735 18.094 92.8748 17.926C93.2855 17.7487 93.7475 17.66 94.2608 17.66ZM104.538 23.26C104.538 23.8013 104.571 24.212 104.636 24.492C104.711 24.772 104.837 25.0147 105.014 25.22C104.884 25.3227 104.725 25.4113 104.538 25.486C104.352 25.5513 104.179 25.584 104.02 25.584C103.591 25.584 103.334 25.2013 103.25 24.436C102.97 24.8187 102.611 25.1173 102.172 25.332C101.743 25.5373 101.258 25.64 100.716 25.64C100.016 25.64 99.4517 25.458 99.0224 25.094C98.6024 24.73 98.3924 24.2447 98.3924 23.638C98.3924 21.9207 99.9977 20.9827 103.208 20.824V20.278C103.208 19.7367 103.073 19.3353 102.802 19.074C102.532 18.8127 102.112 18.682 101.542 18.682C101.169 18.682 100.819 18.7567 100.492 18.906C100.166 19.0553 99.7924 19.3167 99.3724 19.69C99.307 19.7367 99.2464 19.76 99.1904 19.76C99.069 19.76 98.9384 19.6993 98.7984 19.578C98.6584 19.4473 98.5277 19.27 98.4064 19.046C98.7984 18.6073 99.2837 18.2667 99.8624 18.024C100.441 17.7813 101.043 17.66 101.668 17.66C102.564 17.66 103.264 17.8933 103.768 18.36C104.282 18.8173 104.538 19.4567 104.538 20.278V23.26ZM101.01 24.674C101.44 24.674 101.841 24.548 102.214 24.296C102.588 24.0347 102.919 23.666 103.208 23.19V21.692C100.894 21.7947 99.7364 22.4153 99.7364 23.554C99.7364 23.918 99.8437 24.198 100.058 24.394C100.282 24.5807 100.6 24.674 101.01 24.674ZM106.94 17.8H108.256V25.5H106.94V17.8ZM107.528 16.386C107.005 16.386 106.744 16.1247 106.744 15.602V15.448C106.744 14.9253 107.005 14.664 107.528 14.664H107.668C108.191 14.664 108.452 14.9253 108.452 15.448V15.602C108.452 16.1247 108.191 16.386 107.668 16.386H107.528ZM110.833 14.426H112.149V25.5H110.833V14.426ZM81.3169 44.64C80.1409 44.64 79.2355 44.2947 78.6009 43.604C77.9662 42.904 77.6489 41.9053 77.6489 40.608C77.6489 39.8053 77.7935 39.1053 78.0829 38.508C78.3722 37.9107 78.7875 37.4533 79.3289 37.136C79.8702 36.8187 80.5095 36.66 81.2469 36.66C82.1242 36.66 82.8429 36.884 83.4029 37.332C83.9722 37.7707 84.3082 38.3633 84.4109 39.11C84.2615 39.194 84.1029 39.264 83.9349 39.32C83.7669 39.3667 83.6175 39.39 83.4869 39.39C83.3749 39.39 83.2862 39.3573 83.2209 39.292C83.1649 39.2267 83.1135 39.1053 83.0669 38.928C82.9455 38.4987 82.7309 38.1767 82.4229 37.962C82.1149 37.738 81.7229 37.626 81.2469 37.626C80.5562 37.626 80.0055 37.8967 79.5949 38.438C79.1935 38.97 78.9929 39.6933 78.9929 40.608C78.9929 41.5693 79.1982 42.316 79.6089 42.848C80.0195 43.38 80.5889 43.646 81.3169 43.646C82.4182 43.646 83.1509 43.0767 83.5149 41.938C83.7669 41.938 83.9582 42.008 84.0889 42.148C84.2289 42.2787 84.2989 42.4653 84.2989 42.708C84.2989 43.044 84.1589 43.3613 83.8789 43.66C83.6082 43.9587 83.2442 44.1967 82.7869 44.374C82.3295 44.5513 81.8395 44.64 81.3169 44.64ZM88.8428 44.64C87.7415 44.64 86.9062 44.2993 86.3368 43.618C85.7675 42.9367 85.4828 41.9427 85.4828 40.636C85.4828 39.3293 85.7675 38.34 86.3368 37.668C86.9062 36.996 87.7415 36.66 88.8428 36.66C89.9442 36.66 90.7795 36.996 91.3488 37.668C91.9275 38.34 92.2168 39.3293 92.2168 40.636C92.2168 41.9427 91.9275 42.9367 91.3488 43.618C90.7795 44.2993 89.9442 44.64 88.8428 44.64ZM88.8428 43.674C89.5428 43.674 90.0515 43.4313 90.3688 42.946C90.6955 42.4607 90.8588 41.6907 90.8588 40.636C90.8588 39.5907 90.6955 38.83 90.3688 38.354C90.0515 37.8687 89.5428 37.626 88.8428 37.626C88.1428 37.626 87.6295 37.8687 87.3028 38.354C86.9855 38.83 86.8268 39.5907 86.8268 40.636C86.8268 41.6907 86.9902 42.4607 87.3168 42.946C87.6435 43.4313 88.1522 43.674 88.8428 43.674ZM100.108 42.666C100.108 43.1887 100.118 43.5573 100.136 43.772C100.164 43.9867 100.211 44.1827 100.276 44.36C99.9405 44.5 99.5905 44.57 99.2265 44.57C99.0491 44.57 98.9278 44.4673 98.8625 44.262C98.8065 44.0473 98.7785 43.6507 98.7785 43.072V39.32C98.7785 38.7227 98.6711 38.298 98.4565 38.046C98.2511 37.7847 97.9058 37.654 97.4205 37.654C96.7018 37.654 95.9551 38.004 95.1805 38.704V44.5H93.8505V39.39C93.8505 38.102 93.7945 37.304 93.6825 36.996C94.1211 36.828 94.4665 36.744 94.7185 36.744C95.0265 36.744 95.1805 37.0147 95.1805 37.556V37.696C95.6285 37.332 96.0485 37.0707 96.4405 36.912C96.8418 36.744 97.2665 36.66 97.7145 36.66C98.5171 36.66 99.1145 36.8793 99.5065 37.318C99.9078 37.7473 100.108 38.4053 100.108 39.292V42.666ZM106.203 43.422C106.278 43.4593 106.339 43.5247 106.385 43.618C106.432 43.702 106.455 43.8 106.455 43.912C106.455 44.0987 106.385 44.234 106.245 44.318C106.105 44.4207 105.909 44.5 105.657 44.556C105.415 44.612 105.149 44.64 104.859 44.64C104.234 44.64 103.735 44.472 103.361 44.136C102.988 43.7907 102.801 43.3333 102.801 42.764V37.738H101.443V36.8H102.801V34.7H104.131V36.8H105.965V37.738H104.131V42.582C104.131 42.9553 104.206 43.2307 104.355 43.408C104.505 43.576 104.733 43.66 105.041 43.66C105.415 43.66 105.802 43.5807 106.203 43.422ZM113.452 42.26C113.452 42.8013 113.485 43.212 113.55 43.492C113.625 43.772 113.751 44.0147 113.928 44.22C113.798 44.3227 113.639 44.4113 113.452 44.486C113.266 44.5513 113.093 44.584 112.934 44.584C112.505 44.584 112.248 44.2013 112.164 43.436C111.884 43.8187 111.525 44.1173 111.086 44.332C110.657 44.5373 110.172 44.64 109.63 44.64C108.93 44.64 108.366 44.458 107.936 44.094C107.516 43.73 107.306 43.2447 107.306 42.638C107.306 40.9207 108.912 39.9827 112.122 39.824V39.278C112.122 38.7367 111.987 38.3353 111.716 38.074C111.446 37.8127 111.026 37.682 110.456 37.682C110.083 37.682 109.733 37.7567 109.406 37.906C109.08 38.0553 108.706 38.3167 108.286 38.69C108.221 38.7367 108.16 38.76 108.104 38.76C107.983 38.76 107.852 38.6993 107.712 38.578C107.572 38.4473 107.442 38.27 107.32 38.046C107.712 37.6073 108.198 37.2667 108.776 37.024C109.355 36.7813 109.957 36.66 110.582 36.66C111.478 36.66 112.178 36.8933 112.682 37.36C113.196 37.8173 113.452 38.4567 113.452 39.278V42.26ZM109.924 43.674C110.354 43.674 110.755 43.548 111.128 43.296C111.502 43.0347 111.833 42.666 112.122 42.19V40.692C109.808 40.7947 108.65 41.4153 108.65 42.554C108.65 42.918 108.758 43.198 108.972 43.394C109.196 43.5807 109.514 43.674 109.924 43.674ZM118.682 44.64C117.506 44.64 116.601 44.2947 115.966 43.604C115.331 42.904 115.014 41.9053 115.014 40.608C115.014 39.8053 115.159 39.1053 115.448 38.508C115.737 37.9107 116.153 37.4533 116.694 37.136C117.235 36.8187 117.875 36.66 118.612 36.66C119.489 36.66 120.208 36.884 120.768 37.332C121.337 37.7707 121.673 38.3633 121.776 39.11C121.627 39.194 121.468 39.264 121.3 39.32C121.132 39.3667 120.983 39.39 120.852 39.39C120.74 39.39 120.651 39.3573 120.586 39.292C120.53 39.2267 120.479 39.1053 120.432 38.928C120.311 38.4987 120.096 38.1767 119.788 37.962C119.48 37.738 119.088 37.626 118.612 37.626C117.921 37.626 117.371 37.8967 116.96 38.438C116.559 38.97 116.358 39.6933 116.358 40.608C116.358 41.5693 116.563 42.316 116.974 42.848C117.385 43.38 117.954 43.646 118.682 43.646C119.783 43.646 120.516 43.0767 120.88 41.938C121.132 41.938 121.323 42.008 121.454 42.148C121.594 42.2787 121.664 42.4653 121.664 42.708C121.664 43.044 121.524 43.3613 121.244 43.66C120.973 43.9587 120.609 44.1967 120.152 44.374C119.695 44.5513 119.205 44.64 118.682 44.64ZM127.258 43.422C127.333 43.4593 127.393 43.5247 127.44 43.618C127.487 43.702 127.51 43.8 127.51 43.912C127.51 44.0987 127.44 44.234 127.3 44.318C127.16 44.4207 126.964 44.5 126.712 44.556C126.469 44.612 126.203 44.64 125.914 44.64C125.289 44.64 124.789 44.472 124.416 44.136C124.043 43.7907 123.856 43.3333 123.856 42.764V37.738H122.498V36.8H123.856V34.7H125.186V36.8H127.02V37.738H125.186V42.582C125.186 42.9553 125.261 43.2307 125.41 43.408C125.559 43.576 125.788 43.66 126.096 43.66C126.469 43.66 126.857 43.5807 127.258 43.422ZM135.529 40.664C135.52 40.7293 135.506 40.8227 135.487 40.944C135.468 41.056 135.459 41.1493 135.459 41.224C135.459 41.532 135.613 41.686 135.921 41.686C136.229 41.686 136.523 41.5647 136.803 41.322C137.083 41.07 137.312 40.7293 137.489 40.3C137.666 39.8613 137.755 39.3713 137.755 38.83C137.755 38.1113 137.587 37.4813 137.251 36.94C136.915 36.3893 136.444 35.9693 135.837 35.68C135.24 35.3813 134.549 35.232 133.765 35.232C132.916 35.232 132.164 35.4187 131.511 35.792C130.867 36.1653 130.363 36.6833 129.999 37.346C129.644 38.0087 129.467 38.76 129.467 39.6C129.467 40.5053 129.649 41.2893 130.013 41.952C130.377 42.6147 130.895 43.1233 131.567 43.478C132.239 43.8327 133.028 44.01 133.933 44.01C134.577 44.01 135.118 43.94 135.557 43.8C135.996 43.66 136.416 43.4547 136.817 43.184C137.041 43.3053 137.153 43.4687 137.153 43.674C137.153 43.8607 137.004 44.038 136.705 44.206C136.416 44.374 136.019 44.5093 135.515 44.612C135.02 44.724 134.493 44.78 133.933 44.78C132.86 44.78 131.922 44.5793 131.119 44.178C130.326 43.7673 129.71 43.1747 129.271 42.4C128.832 41.616 128.613 40.6733 128.613 39.572C128.613 38.6293 128.832 37.7707 129.271 36.996C129.719 36.212 130.335 35.596 131.119 35.148C131.903 34.6907 132.78 34.462 133.751 34.462C134.712 34.462 135.557 34.6487 136.285 35.022C137.022 35.3953 137.592 35.918 137.993 36.59C138.404 37.2527 138.609 38.0087 138.609 38.858C138.609 39.5767 138.478 40.216 138.217 40.776C137.956 41.3267 137.61 41.7513 137.181 42.05C136.761 42.3487 136.318 42.498 135.851 42.498C135.571 42.498 135.324 42.4233 135.109 42.274C134.904 42.1153 134.764 41.91 134.689 41.658C134.353 42.218 133.826 42.498 133.107 42.498C132.491 42.498 131.996 42.2973 131.623 41.896C131.259 41.4853 131.077 40.9113 131.077 40.174C131.077 39.5487 131.18 38.9933 131.385 38.508C131.6 38.0133 131.898 37.6307 132.281 37.36C132.664 37.0893 133.107 36.954 133.611 36.954C134.292 36.954 134.773 37.2153 135.053 37.738L135.151 37.178H136.089L135.529 40.664ZM133.219 41.686C133.695 41.686 134.068 41.448 134.339 40.972C134.619 40.496 134.759 39.936 134.759 39.292C134.759 38.7973 134.656 38.4193 134.451 38.158C134.255 37.8967 133.984 37.766 133.639 37.766C133.163 37.766 132.799 37.99 132.547 38.438C132.304 38.886 132.183 39.4553 132.183 40.146C132.183 40.6407 132.267 41.0233 132.435 41.294C132.612 41.5553 132.874 41.686 133.219 41.686ZM140.597 33.426H141.913V44.5H140.597V33.426ZM147.003 44.64C145.902 44.64 145.066 44.2993 144.497 43.618C143.928 42.9367 143.643 41.9427 143.643 40.636C143.643 39.3293 143.928 38.34 144.497 37.668C145.066 36.996 145.902 36.66 147.003 36.66C148.104 36.66 148.94 36.996 149.509 37.668C150.088 38.34 150.377 39.3293 150.377 40.636C150.377 41.9427 150.088 42.9367 149.509 43.618C148.94 44.2993 148.104 44.64 147.003 44.64ZM147.003 43.674C147.703 43.674 148.212 43.4313 148.529 42.946C148.856 42.4607 149.019 41.6907 149.019 40.636C149.019 39.5907 148.856 38.83 148.529 38.354C148.212 37.8687 147.703 37.626 147.003 37.626C146.303 37.626 145.79 37.8687 145.463 38.354C145.146 38.83 144.987 39.5907 144.987 40.636C144.987 41.6907 145.15 42.4607 145.477 42.946C145.804 43.4313 146.312 43.674 147.003 43.674ZM158.269 36.254C158.483 36.254 158.637 36.3193 158.731 36.45C158.833 36.5713 158.885 36.7767 158.885 37.066C158.885 37.206 158.88 37.3133 158.871 37.388C158.199 37.388 157.727 37.4767 157.457 37.654C157.811 38.0927 157.989 38.62 157.989 39.236C157.989 40.1227 157.718 40.7947 157.177 41.252C156.635 41.7 155.842 41.924 154.797 41.924C154.227 41.924 153.817 41.966 153.565 42.05C153.322 42.1247 153.201 42.2507 153.201 42.428C153.201 42.624 153.355 42.7687 153.663 42.862C153.98 42.946 154.498 42.988 155.217 42.988C156.29 42.988 157.116 43.17 157.695 43.534C158.283 43.898 158.577 44.4113 158.577 45.074C158.577 45.7927 158.259 46.3527 157.625 46.754C156.99 47.1553 156.094 47.356 154.937 47.356C153.826 47.356 152.972 47.1787 152.375 46.824C151.787 46.4787 151.493 45.9747 151.493 45.312C151.493 44.92 151.628 44.5887 151.899 44.318C152.179 44.038 152.575 43.842 153.089 43.73V43.688C152.781 43.6133 152.533 43.478 152.347 43.282C152.169 43.0767 152.081 42.8387 152.081 42.568C152.081 42.3347 152.174 42.1247 152.361 41.938C152.557 41.7513 152.818 41.616 153.145 41.532C152.725 41.308 152.393 41.014 152.151 40.65C151.917 40.2767 151.801 39.8613 151.801 39.404C151.801 38.508 152.076 37.8267 152.627 37.36C153.187 36.8933 153.999 36.66 155.063 36.66C155.679 36.66 156.225 36.786 156.701 37.038C156.925 36.7953 157.177 36.604 157.457 36.464C157.737 36.324 158.007 36.254 158.269 36.254ZM154.881 40.958C155.497 40.958 155.94 40.8273 156.211 40.566C156.481 40.3047 156.617 39.88 156.617 39.292C156.617 38.704 156.477 38.2747 156.197 38.004C155.926 37.7333 155.487 37.598 154.881 37.598C154.293 37.598 153.859 37.738 153.579 38.018C153.299 38.2887 153.159 38.7133 153.159 39.292C153.159 40.4027 153.733 40.958 154.881 40.958ZM154.993 43.996C153.574 43.996 152.865 44.3833 152.865 45.158C152.865 45.97 153.555 46.376 154.937 46.376C155.702 46.376 156.281 46.2733 156.673 46.068C157.065 45.8627 157.261 45.5593 157.261 45.158C157.261 44.7567 157.079 44.4627 156.715 44.276C156.36 44.0893 155.786 43.996 154.993 43.996ZM160.438 36.8H161.754V44.5H160.438V36.8ZM161.026 35.386C160.503 35.386 160.242 35.1247 160.242 34.602V34.448C160.242 33.9253 160.503 33.664 161.026 33.664H161.166C161.689 33.664 161.95 33.9253 161.95 34.448V34.602C161.95 35.1247 161.689 35.386 161.166 35.386H161.026ZM166.543 44.64C166.058 44.64 165.591 44.57 165.143 44.43C164.695 44.29 164.331 44.108 164.051 43.884C163.781 43.6507 163.645 43.3987 163.645 43.128C163.645 42.96 163.701 42.8153 163.813 42.694C163.935 42.5633 164.089 42.484 164.275 42.456C164.565 42.876 164.891 43.184 165.255 43.38C165.619 43.576 166.067 43.674 166.599 43.674C167.131 43.674 167.533 43.5573 167.803 43.324C168.074 43.0813 168.209 42.764 168.209 42.372C168.209 42.12 168.125 41.9147 167.957 41.756C167.799 41.588 167.593 41.4573 167.341 41.364C167.099 41.2613 166.767 41.154 166.347 41.042C165.797 40.8927 165.353 40.748 165.017 40.608C164.691 40.4587 164.406 40.244 164.163 39.964C163.93 39.6747 163.813 39.2967 163.813 38.83C163.813 38.3633 163.944 37.9667 164.205 37.64C164.467 37.3133 164.803 37.0707 165.213 36.912C165.624 36.744 166.053 36.66 166.501 36.66C167.127 36.66 167.682 36.786 168.167 37.038C168.662 37.2807 169.045 37.6213 169.315 38.06C169.203 38.2187 169.082 38.3447 168.951 38.438C168.821 38.5313 168.699 38.578 168.587 38.578C168.447 38.578 168.321 38.5127 168.209 38.382C167.761 37.8593 167.187 37.598 166.487 37.598C166.058 37.598 165.717 37.696 165.465 37.892C165.213 38.088 165.087 38.3867 165.087 38.788C165.087 39.04 165.167 39.2453 165.325 39.404C165.484 39.5533 165.685 39.6747 165.927 39.768C166.17 39.852 166.497 39.9453 166.907 40.048C167.467 40.1973 167.915 40.342 168.251 40.482C168.587 40.622 168.877 40.8413 169.119 41.14C169.362 41.4387 169.483 41.8353 169.483 42.33C169.483 43.0487 169.217 43.6133 168.685 44.024C168.163 44.4347 167.449 44.64 166.543 44.64ZM174.932 43.422C175.007 43.4593 175.067 43.5247 175.114 43.618C175.161 43.702 175.184 43.8 175.184 43.912C175.184 44.0987 175.114 44.234 174.974 44.318C174.834 44.4207 174.638 44.5 174.386 44.556C174.143 44.612 173.877 44.64 173.588 44.64C172.963 44.64 172.463 44.472 172.09 44.136C171.717 43.7907 171.53 43.3333 171.53 42.764V37.738H170.172V36.8H171.53V34.7H172.86V36.8H174.694V37.738H172.86V42.582C172.86 42.9553 172.935 43.2307 173.084 43.408C173.233 43.576 173.462 43.66 173.77 43.66C174.143 43.66 174.531 43.5807 174.932 43.422ZM176.735 36.8H178.051V44.5H176.735V36.8ZM177.323 35.386C176.8 35.386 176.539 35.1247 176.539 34.602V34.448C176.539 33.9253 176.8 33.664 177.323 33.664H177.463C177.986 33.664 178.247 33.9253 178.247 34.448V34.602C178.247 35.1247 177.986 35.386 177.463 35.386H177.323ZM183.596 44.64C182.42 44.64 181.515 44.2947 180.88 43.604C180.245 42.904 179.928 41.9053 179.928 40.608C179.928 39.8053 180.073 39.1053 180.362 38.508C180.651 37.9107 181.067 37.4533 181.608 37.136C182.149 36.8187 182.789 36.66 183.526 36.66C184.403 36.66 185.122 36.884 185.682 37.332C186.251 37.7707 186.587 38.3633 186.69 39.11C186.541 39.194 186.382 39.264 186.214 39.32C186.046 39.3667 185.897 39.39 185.766 39.39C185.654 39.39 185.565 39.3573 185.5 39.292C185.444 39.2267 185.393 39.1053 185.346 38.928C185.225 38.4987 185.01 38.1767 184.702 37.962C184.394 37.738 184.002 37.626 183.526 37.626C182.835 37.626 182.285 37.8967 181.874 38.438C181.473 38.97 181.272 39.6933 181.272 40.608C181.272 41.5693 181.477 42.316 181.888 42.848C182.299 43.38 182.868 43.646 183.596 43.646C184.697 43.646 185.43 43.0767 185.794 41.938C186.046 41.938 186.237 42.008 186.368 42.148C186.508 42.2787 186.578 42.4653 186.578 42.708C186.578 43.044 186.438 43.3613 186.158 43.66C185.887 43.9587 185.523 44.1967 185.066 44.374C184.609 44.5513 184.119 44.64 183.596 44.64ZM190.674 44.64C190.189 44.64 189.722 44.57 189.274 44.43C188.826 44.29 188.462 44.108 188.182 43.884C187.911 43.6507 187.776 43.3987 187.776 43.128C187.776 42.96 187.832 42.8153 187.944 42.694C188.065 42.5633 188.219 42.484 188.406 42.456C188.695 42.876 189.022 43.184 189.386 43.38C189.75 43.576 190.198 43.674 190.73 43.674C191.262 43.674 191.663 43.5573 191.934 43.324C192.205 43.0813 192.34 42.764 192.34 42.372C192.34 42.12 192.256 41.9147 192.088 41.756C191.929 41.588 191.724 41.4573 191.472 41.364C191.229 41.2613 190.898 41.154 190.478 41.042C189.927 40.8927 189.484 40.748 189.148 40.608C188.821 40.4587 188.537 40.244 188.294 39.964C188.061 39.6747 187.944 39.2967 187.944 38.83C187.944 38.3633 188.075 37.9667 188.336 37.64C188.597 37.3133 188.933 37.0707 189.344 36.912C189.755 36.744 190.184 36.66 190.632 36.66C191.257 36.66 191.813 36.786 192.298 37.038C192.793 37.2807 193.175 37.6213 193.446 38.06C193.334 38.2187 193.213 38.3447 193.082 38.438C192.951 38.5313 192.83 38.578 192.718 38.578C192.578 38.578 192.452 38.5127 192.34 38.382C191.892 37.8593 191.318 37.598 190.618 37.598C190.189 37.598 189.848 37.696 189.596 37.892C189.344 38.088 189.218 38.3867 189.218 38.788C189.218 39.04 189.297 39.2453 189.456 39.404C189.615 39.5533 189.815 39.6747 190.058 39.768C190.301 39.852 190.627 39.9453 191.038 40.048C191.598 40.1973 192.046 40.342 192.382 40.482C192.718 40.622 193.007 40.8413 193.25 41.14C193.493 41.4387 193.614 41.8353 193.614 42.33C193.614 43.0487 193.348 43.6133 192.816 44.024C192.293 44.4347 191.579 44.64 190.674 44.64ZM196.221 44.528C195.698 44.528 195.437 44.2667 195.437 43.744V43.59C195.437 43.0673 195.698 42.806 196.221 42.806H196.361C196.883 42.806 197.145 43.0673 197.145 43.59V43.744C197.145 44.2667 196.883 44.528 196.361 44.528H196.221ZM202.641 44.64C201.465 44.64 200.56 44.2947 199.925 43.604C199.29 42.904 198.973 41.9053 198.973 40.608C198.973 39.8053 199.118 39.1053 199.407 38.508C199.696 37.9107 200.112 37.4533 200.653 37.136C201.194 36.8187 201.834 36.66 202.571 36.66C203.448 36.66 204.167 36.884 204.727 37.332C205.296 37.7707 205.632 38.3633 205.735 39.11C205.586 39.194 205.427 39.264 205.259 39.32C205.091 39.3667 204.942 39.39 204.811 39.39C204.699 39.39 204.61 39.3573 204.545 39.292C204.489 39.2267 204.438 39.1053 204.391 38.928C204.27 38.4987 204.055 38.1767 203.747 37.962C203.439 37.738 203.047 37.626 202.571 37.626C201.88 37.626 201.33 37.8967 200.919 38.438C200.518 38.97 200.317 39.6933 200.317 40.608C200.317 41.5693 200.522 42.316 200.933 42.848C201.344 43.38 201.913 43.646 202.641 43.646C203.742 43.646 204.475 43.0767 204.839 41.938C205.091 41.938 205.282 42.008 205.413 42.148C205.553 42.2787 205.623 42.4653 205.623 42.708C205.623 43.044 205.483 43.3613 205.203 43.66C204.932 43.9587 204.568 44.1967 204.111 44.374C203.654 44.5513 203.164 44.64 202.641 44.64ZM210.167 44.64C209.066 44.64 208.23 44.2993 207.661 43.618C207.092 42.9367 206.807 41.9427 206.807 40.636C206.807 39.3293 207.092 38.34 207.661 37.668C208.23 36.996 209.066 36.66 210.167 36.66C211.268 36.66 212.104 36.996 212.673 37.668C213.252 38.34 213.541 39.3293 213.541 40.636C213.541 41.9427 213.252 42.9367 212.673 43.618C212.104 44.2993 211.268 44.64 210.167 44.64ZM210.167 43.674C210.867 43.674 211.376 43.4313 211.693 42.946C212.02 42.4607 212.183 41.6907 212.183 40.636C212.183 39.5907 212.02 38.83 211.693 38.354C211.376 37.8687 210.867 37.626 210.167 37.626C209.467 37.626 208.954 37.8687 208.627 38.354C208.31 38.83 208.151 39.5907 208.151 40.636C208.151 41.6907 208.314 42.4607 208.641 42.946C208.968 43.4313 209.476 43.674 210.167 43.674ZM223.351 36.66C224.041 36.66 224.597 36.8747 225.017 37.304C225.437 37.7333 225.647 38.3027 225.647 39.012V44.5H224.303V39.054C224.303 38.5407 224.2 38.172 223.995 37.948C223.799 37.7147 223.472 37.598 223.015 37.598C222.324 37.598 221.685 37.92 221.097 38.564C221.106 38.6293 221.111 38.7227 221.111 38.844V44.5H219.795V38.914C219.795 38.494 219.687 38.172 219.473 37.948C219.258 37.7147 218.955 37.598 218.563 37.598C218.217 37.598 217.881 37.6867 217.555 37.864C217.237 38.032 216.911 38.298 216.575 38.662V44.5H215.245V39.46C215.245 38.1067 215.189 37.29 215.077 37.01C215.235 36.9353 215.399 36.8747 215.567 36.828C215.744 36.772 215.898 36.744 216.029 36.744C216.215 36.744 216.351 36.8187 216.435 36.968C216.519 37.108 216.565 37.3367 216.575 37.654C216.92 37.3087 217.279 37.0567 217.653 36.898C218.026 36.7393 218.451 36.66 218.927 36.66C219.356 36.66 219.739 36.758 220.075 36.954C220.411 37.1407 220.667 37.402 220.845 37.738C221.19 37.3647 221.563 37.094 221.965 36.926C222.375 36.7487 222.837 36.66 223.351 36.66Z" fill="white"/>
<circle cx="31.6309" cy="32" r="31" fill="#111C55" stroke="#273270"/>
<path d="M41.1268 23.5H23.1349C22.5804 23.5 22.1309 23.8755 22.1309 24.3387V37.6613C22.1309 38.1245 22.5804 38.5 23.1349 38.5H41.1268C41.6813 38.5 42.1309 38.1245 42.1309 37.6613V24.3387C42.1309 23.8755 41.6813 23.5 41.1268 23.5Z" stroke="#F6B426"/>
<path d="M22.1309 23.5L32.5556 30.5L42.1309 23.7294" stroke="#F6B426"/>
</svg>
