<svg width="24" height="23" viewBox="0 0 24 23" fill="none" xmlns="http://www.w3.org/2000/svg">
<path fill-rule="evenodd" clip-rule="evenodd" d="M23.5114 11.3532C23.5114 5.38346 18.3435 0.542969 11.97 0.542969C5.59654 0.542969 0.428711 5.38346 0.428711 11.3532C0.428711 16.7487 4.64851 21.221 10.1667 22.0327L10.1667 14.4791L7.23551 14.4791L7.23551 11.3532L10.1667 11.3532L10.1667 8.97161C10.1667 6.26276 11.8902 4.76525 14.5261 4.76525C15.789 4.76525 17.11 4.97663 17.11 4.97663L17.11 7.63721L15.654 7.63721C14.2211 7.63721 13.7728 8.47018 13.7728 9.32632L13.7728 11.3532L16.9735 11.3532L16.4624 14.4791L13.7734 14.4791L13.7734 22.0337C19.2916 21.2224 23.5114 16.7502 23.5114 11.3532Z" fill="#1C1F35"/>
</svg>
