<svg width="63" height="64" viewBox="0 0 63 64" fill="none" xmlns="http://www.w3.org/2000/svg">
<circle cx="31.5" cy="31.7174" r="31.5" fill="url(#paint0_linear_1_4779)"/>
<path d="M43 36.7544V25.6804C42.9991 25.5205 42.9552 25.3635 42.8728 25.2255C42.7903 25.0875 42.6721 24.9732 42.5302 24.8942L32.4469 19.3348C32.311 19.2579 32.1569 19.2174 32 19.2174C31.8431 19.2174 31.689 19.2579 31.5531 19.3348L21.4698 24.8942C21.3279 24.9732 21.2097 25.0875 21.1272 25.2255C21.0448 25.3635 21.0009 25.5205 21 25.6804V36.7544C21.0009 36.9144 21.0448 37.0713 21.1272 37.2093C21.2097 37.3473 21.3279 37.4616 21.4698 37.5406L31.5531 43.1C31.689 43.1769 31.8431 43.2174 32 43.2174C32.1569 43.2174 32.311 43.1769 32.4469 43.1L42.5302 37.5406C42.6721 37.4616 42.7903 37.3473 42.8728 37.2093C42.9552 37.0713 42.9991 36.9144 43 36.7544V36.7544Z" stroke="#1C1F35" stroke-width="2" stroke-linecap="round" stroke-linejoin="round"/>
<path d="M38 34.2174V28.3027L27 22.2174" stroke="#1C1F35" stroke-width="2" stroke-linecap="round" stroke-linejoin="round"/>
<path d="M43 25.2174L32.1043 31.2174L21 25.2174" stroke="#1C1F35" stroke-width="2" stroke-linecap="round" stroke-linejoin="round"/>
<path d="M32 31.2174V43.2174" stroke="#1C1F35" stroke-width="2" stroke-linecap="round" stroke-linejoin="round"/>
<defs>
<linearGradient id="paint0_linear_1_4779" x1="-1.78608" y1="13.8674" x2="77.4684" y2="19.4956" gradientUnits="userSpaceOnUse">
<stop stop-color="#FFB629"/>
<stop offset="0.507189" stop-color="#FFDA56"/>
<stop offset="1" stop-color="#FFD7A6"/>
</linearGradient>
</defs>
</svg>
