<svg width="23" height="23" viewBox="0 0 23 23" fill="none" xmlns="http://www.w3.org/2000/svg">
<path d="M20.9616 0.542969L2.80963 0.542969C1.81777 0.542969 0.951172 1.25664 0.951172 2.23684L0.951172 20.4291C0.951172 21.4146 1.81777 22.2929 2.80963 22.2929L20.9562 22.2929C21.9534 22.2929 22.7011 21.4088 22.7011 20.4291L22.7011 2.23684C22.7069 1.25664 21.9534 0.542969 20.9616 0.542969ZM7.69316 18.6726L4.57729 18.6726L4.57729 8.98466L7.69316 8.98466L7.69316 18.6726ZM6.24301 7.51168H6.22067C5.22348 7.51168 4.57778 6.76937 4.57778 5.84014C4.57778 4.89392 5.24047 4.16909 6.26 4.16909C7.27953 4.16909 7.90338 4.88858 7.92571 5.84014C7.92523 6.76937 7.27953 7.51168 6.24301 7.51168ZM19.0808 18.6726L15.9649 18.6726L15.9649 13.3754C15.9649 12.1064 15.5115 11.2393 14.3842 11.2393C13.5229 11.2393 13.0132 11.8219 12.7864 12.3894C12.7015 12.5933 12.6787 12.871 12.6787 13.1545L12.6787 18.6726L9.56278 18.6726L9.56278 8.98466L12.6787 8.98466L12.6787 10.3329C13.1321 9.68716 13.8404 8.75793 15.4887 8.75793C17.534 8.75793 19.0813 10.1061 19.0813 13.0128L19.0808 18.6726Z" fill="#1C1F35"/>
</svg>
