<svg width="23" height="23" viewBox="0 0 23 23" fill="none" xmlns="http://www.w3.org/2000/svg">
<path d="M16.4242 2.3341C17.6575 2.33764 18.8391 2.81062 19.7111 3.64974C20.5831 4.48886 21.0747 5.62594 21.0784 6.81263L21.0784 15.7687C21.0747 16.9554 20.5831 18.0925 19.7111 18.9316C18.8391 19.7708 17.6575 20.2437 16.4242 20.2473L7.11702 20.2473C5.8838 20.2437 4.70215 19.7708 3.83013 18.9316C2.95812 18.0925 2.46659 16.9554 2.46291 15.7687L2.46291 6.81263C2.46659 5.62594 2.95812 4.48886 3.83013 3.64974C4.70215 2.81062 5.8838 2.33764 7.11702 2.3341L16.4242 2.3341ZM16.4242 0.542969L7.11702 0.542969C3.53344 0.542969 0.601563 3.36424 0.601563 6.81263L0.601563 15.7687C0.601563 19.2171 3.53344 22.0384 7.11702 22.0384L16.4242 22.0384C20.0078 22.0384 22.9397 19.2171 22.9397 15.7687L22.9397 6.81263C22.9397 3.36424 20.0078 0.542969 16.4242 0.542969Z" fill="#1C1F35"/>
<path d="M17.8208 6.81303C17.5447 6.81303 17.2747 6.73424 17.0452 6.58661C16.8156 6.43899 16.6366 6.22917 16.5309 5.98369C16.4253 5.7382 16.3976 5.46807 16.4515 5.20747C16.5054 4.94686 16.6383 4.70748 16.8336 4.51959C17.0288 4.3317 17.2776 4.20375 17.5484 4.15191C17.8193 4.10008 18.1 4.12668 18.3551 4.22836C18.6102 4.33005 18.8282 4.50224 18.9816 4.72317C19.1351 4.94411 19.2169 5.20385 19.2169 5.46956C19.2173 5.6461 19.1815 5.82097 19.1115 5.98413C19.0414 6.1473 18.9386 6.29556 18.8089 6.42038C18.6792 6.54521 18.5251 6.64415 18.3555 6.71154C18.186 6.77892 18.0043 6.81341 17.8208 6.81303ZM11.7711 7.70835C12.5074 7.70835 13.2273 7.91847 13.8396 8.31215C14.4518 8.70583 14.929 9.26537 15.2108 9.92003C15.4926 10.5747 15.5664 11.2951 15.4227 11.99C15.279 12.685 14.9244 13.3234 14.4037 13.8245C13.8831 14.3255 13.2196 14.6667 12.4974 14.805C11.7752 14.9432 11.0266 14.8723 10.3463 14.6011C9.66593 14.3299 9.08445 13.8707 8.67534 13.2815C8.26623 12.6924 8.04787 11.9997 8.04787 11.2911C8.04893 10.3412 8.44153 9.4305 9.13953 8.75883C9.83754 8.08716 10.7839 7.70937 11.7711 7.70835ZM11.7711 5.91723C10.6665 5.91723 9.58683 6.2324 8.66846 6.82288C7.75009 7.41337 7.0343 8.25265 6.61162 9.2346C6.18894 10.2165 6.07835 11.297 6.29383 12.3395C6.50931 13.3819 7.04119 14.3394 7.8222 15.091C8.60321 15.8425 9.59828 16.3543 10.6816 16.5617C11.7649 16.769 12.8877 16.6626 13.9082 16.2559C14.9286 15.8491 15.8008 15.1604 16.4144 14.2766C17.0281 13.3929 17.3556 12.3539 17.3556 11.2911C17.3556 9.86585 16.7672 8.49899 15.7199 7.49119C14.6726 6.4834 13.2522 5.91723 11.7711 5.91723Z" fill="#1C1F35"/>
</svg>
