<svg width="20" height="20" viewBox="0 0 20 20" fill="none" xmlns="http://www.w3.org/2000/svg">
<path d="M14.0759 2.03236C15.173 2.03551 16.2242 2.45628 17 3.20276C17.7757 3.94925 18.213 4.9608 18.2162 6.01648V13.9839C18.213 15.0396 17.7757 16.0511 17 16.7976C16.2242 17.5441 15.173 17.9649 14.0759 17.968H5.79618C4.69911 17.9649 3.6479 17.5441 2.87215 16.7976C2.0964 16.0511 1.65914 15.0396 1.65586 13.9839V6.01648C1.65914 4.9608 2.0964 3.94925 2.87215 3.20276C3.6479 2.45628 4.69911 2.03551 5.79618 2.03236H14.0759ZM14.0759 0.438965H5.79618C2.60821 0.438965 0 2.94878 0 6.01648V13.9839C0 17.0516 2.60821 19.5614 5.79618 19.5614H14.0759C17.2639 19.5614 19.8721 17.0516 19.8721 13.9839V6.01648C19.8721 2.94878 17.2639 0.438965 14.0759 0.438965Z" fill="white"/>
<path d="M15.3177 6.01677C15.072 6.01677 14.8319 5.94668 14.6277 5.81535C14.4234 5.68403 14.2642 5.49737 14.1702 5.27898C14.0762 5.0606 14.0516 4.82029 14.0995 4.58846C14.1475 4.35662 14.2658 4.14366 14.4395 3.97652C14.6131 3.80937 14.8345 3.69555 15.0754 3.64943C15.3163 3.60331 15.566 3.62698 15.793 3.71744C16.0199 3.8079 16.2139 3.96108 16.3504 4.15763C16.4868 4.35417 16.5597 4.58524 16.5597 4.82162C16.56 4.97866 16.5282 5.13423 16.4659 5.27938C16.4036 5.42454 16.3121 5.55642 16.1967 5.66747C16.0813 5.77852 15.9442 5.86654 15.7934 5.92648C15.6425 5.98642 15.4809 6.01711 15.3177 6.01677ZM9.9358 6.81325C10.5909 6.81325 11.2313 7.00018 11.7759 7.3504C12.3206 7.70061 12.7452 8.19839 12.9958 8.78077C13.2465 9.36316 13.3121 10.004 13.1843 10.6223C13.0565 11.2405 12.7411 11.8084 12.2779 12.2542C11.8146 12.6999 11.2245 13.0035 10.582 13.1264C9.93948 13.2494 9.27351 13.1863 8.66829 12.9451C8.06307 12.7038 7.54578 12.2953 7.18184 11.7712C6.81789 11.2471 6.62364 10.6308 6.62364 10.0005C6.62458 9.15544 6.97384 8.34529 7.59478 7.74777C8.21573 7.15024 9.05765 6.81416 9.9358 6.81325ZM9.9358 5.21986C8.95322 5.21986 7.9927 5.50024 7.17571 6.02554C6.35873 6.55084 5.72196 7.29747 5.34594 8.17101C4.96993 9.04455 4.87154 10.0058 5.06323 10.9331C5.25493 11.8605 5.72809 12.7123 6.42288 13.3809C7.11767 14.0494 8.00289 14.5048 8.96659 14.6892C9.93029 14.8737 10.9292 14.779 11.837 14.4172C12.7448 14.0553 13.5207 13.4426 14.0666 12.6564C14.6125 11.8703 14.9038 10.946 14.9038 10.0005C14.9038 8.73257 14.3804 7.51661 13.4487 6.62007C12.517 5.72353 11.2534 5.21986 9.9358 5.21986Z" fill="white"/>
</svg>
