<svg width="20" height="20" viewBox="0 0 20 20" fill="none" xmlns="http://www.w3.org/2000/svg">
<path d="M18.4415 0.291016H2.2354C1.34987 0.291016 0.576172 0.928181 0.576172 1.80331V18.0454C0.576172 18.9253 1.34987 19.7094 2.2354 19.7094H18.4367C19.327 19.7094 19.9945 18.9201 19.9945 18.0454V1.80331C19.9997 0.928181 19.327 0.291016 18.4415 0.291016ZM6.59543 16.4772H3.81358V7.82777H6.59543V16.4772ZM5.30073 6.51269H5.28079C4.39049 6.51269 3.81401 5.84996 3.81401 5.02034C3.81401 4.17555 4.40566 3.52842 5.3159 3.52842C6.22613 3.52842 6.78311 4.17079 6.80305 5.02034C6.80262 5.84996 6.22613 6.51269 5.30073 6.51269ZM16.7623 16.4772H13.9805V11.7478C13.9805 10.6148 13.5756 9.84069 12.5692 9.84069C11.8002 9.84069 11.3451 10.3608 11.1427 10.8675C11.0669 11.0496 11.0465 11.2975 11.0465 11.5506V16.4772H8.26463V7.82777H11.0465V9.03145C11.4513 8.45496 12.0837 7.62535 13.5553 7.62535C15.3814 7.62535 16.7628 8.82903 16.7628 11.4241L16.7623 16.4772Z" fill="white"/>
</svg>
