<svg width="186" height="48" viewBox="0 0 186 48" fill="none" xmlns="http://www.w3.org/2000/svg">
<path d="M62.3623 12.3369V16.1943C62.3623 17.0277 62.4535 17.5452 62.6357 17.7471C62.8831 18.0335 63.2575 18.1768 63.7588 18.1768H64.2666V18.5381H58.5928V18.1768H59.0908C59.6507 18.1768 60.0511 17.9945 60.292 17.6299C60.4222 17.4281 60.4873 16.9495 60.4873 16.1943V7.63965C60.4873 6.80632 60.3994 6.28874 60.2236 6.08691C59.9697 5.80046 59.5921 5.65723 59.0908 5.65723H58.5928V5.2959H63.4463C64.6312 5.2959 65.5654 5.4196 66.249 5.66699C66.9326 5.90788 67.5088 6.31803 67.9775 6.89746C68.4463 7.47689 68.6807 8.16374 68.6807 8.95801C68.6807 10.0387 68.3226 10.9176 67.6064 11.5947C66.8968 12.2718 65.891 12.6104 64.5889 12.6104C64.2699 12.6104 63.9248 12.5876 63.5537 12.542C63.1826 12.4964 62.7855 12.4281 62.3623 12.3369ZM62.3623 11.7803C62.7074 11.8454 63.0133 11.8942 63.2803 11.9268C63.5472 11.9593 63.7751 11.9756 63.9639 11.9756C64.641 11.9756 65.2236 11.7152 65.7119 11.1943C66.2067 10.667 66.4541 9.98665 66.4541 9.15332C66.4541 8.5804 66.3369 8.0498 66.1025 7.56152C65.8682 7.06673 65.5361 6.69889 65.1064 6.45801C64.6768 6.21061 64.1885 6.08691 63.6416 6.08691C63.3096 6.08691 62.8831 6.14876 62.3623 6.27246V11.7803ZM88.008 4.99316C89.7268 4.99316 91.2144 5.64746 92.4709 6.95605C93.7339 8.25814 94.3654 9.88574 94.3654 11.8389C94.3654 13.8506 93.7307 15.5205 92.4611 16.8486C91.1916 18.1768 89.6551 18.8408 87.8518 18.8408C86.0288 18.8408 84.4956 18.193 83.2521 16.8975C82.0152 15.6019 81.3967 13.9255 81.3967 11.8682C81.3967 9.7653 82.1128 8.0498 83.5451 6.72168C84.7886 5.56934 86.2762 4.99316 88.008 4.99316ZM87.8225 5.70605C86.6376 5.70605 85.687 6.14551 84.9709 7.02441C84.079 8.11816 83.633 9.71973 83.633 11.8291C83.633 13.9906 84.0952 15.654 85.0197 16.8193C85.7294 17.7048 86.6669 18.1475 87.8322 18.1475C89.0757 18.1475 90.1011 17.6624 90.9084 16.6924C91.7222 15.7223 92.1291 14.1924 92.1291 12.1025C92.1291 9.83691 91.6831 8.14746 90.7912 7.03418C90.0751 6.14876 89.0855 5.70605 87.8225 5.70605ZM112.619 18.1768V18.5381H106.945V18.1768H107.413C107.96 18.1768 108.357 18.0173 108.605 17.6982C108.761 17.4899 108.839 16.9886 108.839 16.1943V7.63965C108.839 6.96908 108.797 6.52637 108.712 6.31152C108.647 6.14876 108.514 6.00879 108.312 5.8916C108.025 5.73535 107.726 5.65723 107.413 5.65723H106.945V5.2959H112.619V5.65723H112.14C111.6 5.65723 111.206 5.81673 110.958 6.13574C110.796 6.34408 110.714 6.84538 110.714 7.63965V16.1943C110.714 16.8649 110.757 17.3076 110.841 17.5225C110.906 17.6852 111.043 17.8252 111.251 17.9424C111.531 18.0986 111.828 18.1768 112.14 18.1768H112.619ZM124.143 5.2959H127.737L135.833 15.2275V7.59082C135.833 6.77702 135.741 6.26921 135.559 6.06738C135.318 5.79395 134.937 5.65723 134.417 5.65723H133.958V5.2959H138.567V5.65723H138.098C137.538 5.65723 137.141 5.8265 136.907 6.16504C136.764 6.37337 136.692 6.84863 136.692 7.59082V18.7529H136.34L127.61 8.08887V16.2432C127.61 17.057 127.698 17.5648 127.874 17.7666C128.121 18.04 128.502 18.1768 129.016 18.1768H129.485V18.5381H124.876V18.1768H125.335C125.901 18.1768 126.301 18.0075 126.536 17.6689C126.679 17.4606 126.751 16.9854 126.751 16.2432V7.03418C126.366 6.58496 126.074 6.28874 125.872 6.14551C125.676 6.00228 125.387 5.86882 125.003 5.74512C124.814 5.68652 124.527 5.65723 124.143 5.65723V5.2959ZM161.732 5.2959L161.879 8.40137H161.508C161.436 7.85449 161.338 7.46387 161.215 7.22949C161.013 6.85189 160.743 6.5752 160.404 6.39941C160.072 6.21712 159.633 6.12598 159.086 6.12598H157.221V16.2432C157.221 17.057 157.308 17.5648 157.484 17.7666C157.732 18.04 158.112 18.1768 158.627 18.1768H159.086V18.5381H153.471V18.1768H153.939C154.499 18.1768 154.896 18.0075 155.131 17.6689C155.274 17.4606 155.346 16.9854 155.346 16.2432V6.12598H153.754C153.135 6.12598 152.696 6.17155 152.435 6.2627C152.097 6.38639 151.807 6.62402 151.566 6.97559C151.325 7.32715 151.182 7.80241 151.137 8.40137H150.765L150.922 5.2959H161.732ZM182.856 4.99316V9.57324H182.495C182.378 8.69434 182.166 7.99447 181.86 7.47363C181.561 6.9528 181.131 6.53939 180.571 6.2334C180.011 5.92741 179.432 5.77441 178.833 5.77441C178.156 5.77441 177.596 5.98275 177.153 6.39941C176.711 6.80957 176.489 7.27832 176.489 7.80566C176.489 8.20931 176.629 8.57715 176.909 8.90918C177.313 9.39746 178.273 10.0485 179.79 10.8623C181.027 11.5264 181.87 12.0374 182.319 12.3955C182.775 12.7471 183.123 13.1637 183.364 13.6455C183.612 14.1273 183.735 14.6318 183.735 15.1592C183.735 16.1618 183.345 17.0277 182.563 17.7568C181.789 18.4795 180.789 18.8408 179.565 18.8408C179.181 18.8408 178.82 18.8115 178.481 18.7529C178.28 18.7204 177.86 18.6032 177.222 18.4014C176.59 18.193 176.19 18.0889 176.021 18.0889C175.858 18.0889 175.728 18.1377 175.63 18.2354C175.539 18.333 175.47 18.5348 175.425 18.8408H175.063V14.2998H175.425C175.594 15.2503 175.822 15.9632 176.108 16.4385C176.395 16.9072 176.831 17.2979 177.417 17.6104C178.009 17.9229 178.657 18.0791 179.36 18.0791C180.174 18.0791 180.815 17.8643 181.284 17.4346C181.759 17.0049 181.997 16.4971 181.997 15.9111C181.997 15.5856 181.906 15.2568 181.724 14.9248C181.548 14.5928 181.271 14.2835 180.894 13.9971C180.64 13.8018 179.946 13.3883 178.813 12.7568C177.681 12.1188 176.873 11.611 176.392 11.2334C175.916 10.8558 175.555 10.4391 175.308 9.9834C175.06 9.52767 174.937 9.02637 174.937 8.47949C174.937 7.52897 175.301 6.71191 176.03 6.02832C176.759 5.33822 177.687 4.99316 178.813 4.99316C179.517 4.99316 180.262 5.16569 181.05 5.51074C181.414 5.6735 181.672 5.75488 181.821 5.75488C181.991 5.75488 182.127 5.70605 182.231 5.6084C182.342 5.50423 182.43 5.29915 182.495 4.99316H182.856ZM65.5752 27.9932C67.2939 27.9932 68.7816 28.6475 70.0381 29.9561C71.3011 31.2581 71.9326 32.8857 71.9326 34.8389C71.9326 36.8506 71.2979 38.5205 70.0283 39.8486C68.7588 41.1768 67.2223 41.8408 65.4189 41.8408C63.596 41.8408 62.0628 41.193 60.8193 39.8975C59.5824 38.6019 58.9639 36.9255 58.9639 34.8682C58.9639 32.7653 59.68 31.0498 61.1123 29.7217C62.3558 28.5693 63.8434 27.9932 65.5752 27.9932ZM65.3896 28.7061C64.2048 28.7061 63.2542 29.1455 62.5381 30.0244C61.6462 31.1182 61.2002 32.7197 61.2002 34.8291C61.2002 36.9906 61.6624 38.654 62.5869 39.8193C63.2965 40.7048 64.234 41.1475 65.3994 41.1475C66.6429 41.1475 67.6683 40.6624 68.4756 39.6924C69.2894 38.7223 69.6963 37.1924 69.6963 35.1025C69.6963 32.8369 69.2503 31.1475 68.3584 30.0342C67.6423 29.1488 66.6527 28.7061 65.3896 28.7061ZM83.7502 28.2959H87.3439L95.4396 38.2275V30.5908C95.4396 29.777 95.3485 29.2692 95.1662 29.0674C94.9253 28.7939 94.5445 28.6572 94.0236 28.6572H93.5646V28.2959H98.174V28.6572H97.7053C97.1454 28.6572 96.7482 28.8265 96.5139 29.165C96.3706 29.3734 96.299 29.8486 96.299 30.5908V41.7529H95.9475L87.217 31.0889V39.2432C87.217 40.057 87.3049 40.5648 87.4807 40.7666C87.7281 41.04 88.1089 41.1768 88.6232 41.1768H89.092V41.5381H84.4826V41.1768H84.9416C85.508 41.1768 85.9084 41.0075 86.1428 40.6689C86.286 40.4606 86.3576 39.9854 86.3576 39.2432V30.0342C85.9735 29.585 85.6805 29.2887 85.4787 29.1455C85.2834 29.0023 84.9937 28.8688 84.6096 28.7451C84.4208 28.6865 84.1343 28.6572 83.7502 28.6572V28.2959ZM113.947 29.0186V34.2529H116.857C117.612 34.2529 118.117 34.139 118.371 33.9111C118.709 33.6117 118.898 33.0843 118.937 32.3291H119.298V36.9385H118.937C118.846 36.2939 118.755 35.8805 118.663 35.6982C118.546 35.4704 118.354 35.2913 118.087 35.1611C117.82 35.0309 117.41 34.9658 116.857 34.9658H113.947V39.3311C113.947 39.917 113.973 40.2751 114.025 40.4053C114.077 40.529 114.168 40.6299 114.298 40.708C114.428 40.7796 114.676 40.8154 115.04 40.8154H117.287C118.035 40.8154 118.579 40.7633 118.917 40.6592C119.256 40.555 119.581 40.3499 119.894 40.0439C120.298 39.6403 120.711 39.0316 121.134 38.2178H121.525L120.382 41.5381H110.177V41.1768H110.646C110.958 41.1768 111.255 41.1019 111.535 40.9521C111.743 40.848 111.883 40.6917 111.954 40.4834C112.033 40.2751 112.072 39.8486 112.072 39.2041V30.6006C112.072 29.7607 111.987 29.2432 111.818 29.0479C111.583 28.7874 111.193 28.6572 110.646 28.6572H110.177V28.2959H120.382L120.529 31.1963H120.148C120.011 30.4997 119.858 30.0212 119.689 29.7607C119.526 29.5003 119.282 29.3018 118.956 29.165C118.696 29.0674 118.237 29.0186 117.579 29.0186H113.947Z" fill="white"/>
<path d="M5.70119 13.3018L23.6843 0.611952L41.6675 13.3018L43.6656 35.2205L23.6843 44.4495L3.70306 35.2205L5.70119 13.3018Z" stroke="white"/>
<path d="M9.06473 15.2437L23.6843 4.92738L38.3039 15.2437L39.9283 33.0628L23.6843 40.5655L7.44033 33.0628L9.06473 15.2437Z" stroke="white"/>
<path d="M12.3789 17.1569L23.6847 9.17897L34.9905 17.1569L36.2467 30.937L23.6847 36.7391L11.1227 30.937L12.3789 17.1569Z" stroke="white"/>
<path d="M16.0545 19.2789L23.6847 13.8947L31.3148 19.2789L32.1626 28.5789L23.6847 32.4947L15.2067 28.5789L16.0545 19.2789Z" stroke="white"/>
<rect x="126.865" y="28.4324" width="57.5341" height="2.17102" fill="white"/>
<rect x="126.865" y="33.4983" width="57.5341" height="2.17102" fill="white"/>
<rect x="126.865" y="38.6848" width="57.5341" height="2.17102" fill="white"/>
</svg>
