<svg width="251" height="49" viewBox="0 0 251 49" fill="none" xmlns="http://www.w3.org/2000/svg">
<path d="M2.75 18C2.58333 18 2.44167 17.95 2.325 17.85C2.225 17.7333 2.175 17.5917 2.175 17.425V1.1C2.175 0.916666 2.225 0.774999 2.325 0.675C2.44167 0.558332 2.58333 0.499999 2.75 0.499999H4C4.2 0.499999 4.35 0.549999 4.45 0.65C4.55 0.75 4.60833 0.833333 4.625 0.9L9.925 11L15.25 0.9C15.2833 0.833333 15.3417 0.75 15.425 0.65C15.525 0.549999 15.675 0.499999 15.875 0.499999H17.1C17.2833 0.499999 17.425 0.558332 17.525 0.675C17.6417 0.774999 17.7 0.916666 17.7 1.1V17.425C17.7 17.5917 17.6417 17.7333 17.525 17.85C17.425 17.95 17.2833 18 17.1 18H15.875C15.7083 18 15.5667 17.95 15.45 17.85C15.35 17.7333 15.3 17.5917 15.3 17.425V5.125L11.125 13.275C11.0583 13.4417 10.9583 13.575 10.825 13.675C10.6917 13.7583 10.525 13.8 10.325 13.8H9.55C9.33333 13.8 9.15833 13.7583 9.025 13.675C8.90833 13.575 8.80833 13.4417 8.725 13.275L4.55 5.125V17.425C4.55 17.5917 4.49167 17.7333 4.375 17.85C4.275 17.95 4.14167 18 3.975 18H2.75ZM27.0236 18.25C25.757 18.25 24.6986 18.0083 23.8486 17.525C22.9986 17.0417 22.3486 16.375 21.8986 15.525C21.4486 14.6583 21.1986 13.675 21.1486 12.575C21.132 12.2917 21.1236 11.9333 21.1236 11.5C21.1236 11.05 21.132 10.6917 21.1486 10.425C21.1986 9.30833 21.4486 8.325 21.8986 7.475C22.3653 6.625 23.0236 5.95833 23.8736 5.475C24.7236 4.99167 25.7736 4.75 27.0236 4.75C28.2736 4.75 29.3236 4.99167 30.1736 5.475C31.0236 5.95833 31.6736 6.625 32.1236 7.475C32.5903 8.325 32.8486 9.30833 32.8986 10.425C32.9153 10.6917 32.9236 11.05 32.9236 11.5C32.9236 11.9333 32.9153 12.2917 32.8986 12.575C32.8486 13.675 32.5986 14.6583 32.1486 15.525C31.6986 16.375 31.0486 17.0417 30.1986 17.525C29.3486 18.0083 28.2903 18.25 27.0236 18.25ZM27.0236 16.325C28.057 16.325 28.882 16 29.4986 15.35C30.1153 14.6833 30.4486 13.7167 30.4986 12.45C30.5153 12.2 30.5236 11.8833 30.5236 11.5C30.5236 11.1167 30.5153 10.8 30.4986 10.55C30.4486 9.28333 30.1153 8.325 29.4986 7.675C28.882 7.00833 28.057 6.675 27.0236 6.675C25.9903 6.675 25.157 7.00833 24.5236 7.675C23.907 8.325 23.582 9.28333 23.5486 10.55C23.532 10.8 23.5236 11.1167 23.5236 11.5C23.5236 11.8833 23.532 12.2 23.5486 12.45C23.582 13.7167 23.907 14.6833 24.5236 15.35C25.157 16 25.9903 16.325 27.0236 16.325ZM40.1152 18C39.8652 18 39.6652 17.9417 39.5152 17.825C39.3819 17.7083 39.2736 17.5583 39.1902 17.375L34.5652 5.775C34.5319 5.69167 34.5152 5.60833 34.5152 5.525C34.5152 5.375 34.5652 5.25 34.6652 5.15C34.7652 5.05 34.8902 5 35.0402 5H36.2402C36.4236 5 36.5652 5.05 36.6652 5.15C36.7652 5.25 36.8236 5.34167 36.8402 5.425L40.6652 15.275L44.4652 5.425C44.4986 5.34167 44.5569 5.25 44.6402 5.15C44.7402 5.05 44.8819 5 45.0652 5H46.2902C46.4236 5 46.5402 5.05 46.6402 5.15C46.7569 5.25 46.8152 5.375 46.8152 5.525C46.8152 5.60833 46.7986 5.69167 46.7652 5.775L42.1152 17.375C42.0486 17.5583 41.9402 17.7083 41.7902 17.825C41.6569 17.9417 41.4569 18 41.1902 18H40.1152ZM50.008 18C49.8413 18 49.6997 17.95 49.583 17.85C49.483 17.7333 49.433 17.5917 49.433 17.425V5.575C49.433 5.40833 49.483 5.275 49.583 5.175C49.6997 5.05833 49.8413 5 50.008 5H51.208C51.3747 5 51.508 5.05833 51.608 5.175C51.708 5.275 51.758 5.40833 51.758 5.575V17.425C51.758 17.5917 51.708 17.7333 51.608 17.85C51.508 17.95 51.3747 18 51.208 18H50.008ZM49.808 2.575C49.6413 2.575 49.4997 2.525 49.383 2.425C49.283 2.30833 49.233 2.16667 49.233 2V0.65C49.233 0.483332 49.283 0.349999 49.383 0.249999C49.4997 0.133333 49.6413 0.0749998 49.808 0.0749998H51.383C51.5497 0.0749998 51.683 0.133333 51.783 0.249999C51.8997 0.349999 51.958 0.483332 51.958 0.65V2C51.958 2.16667 51.8997 2.30833 51.783 2.425C51.683 2.525 51.5497 2.575 51.383 2.575H49.808ZM56.3068 18C56.1402 18 55.9985 17.95 55.8818 17.85C55.7818 17.7333 55.7318 17.5917 55.7318 17.425V5.575C55.7318 5.40833 55.7818 5.275 55.8818 5.175C55.9985 5.05833 56.1402 5 56.3068 5H57.4818C57.6485 5 57.7818 5.05833 57.8818 5.175C57.9985 5.275 58.0568 5.40833 58.0568 5.575V6.675C58.4902 6.10833 59.0318 5.65 59.6818 5.3C60.3485 4.93333 61.1985 4.75 62.2318 4.75C63.3152 4.75 64.2318 4.99167 64.9818 5.475C65.7485 5.94167 66.3235 6.6 66.7068 7.45C67.0902 8.28333 67.2818 9.25833 67.2818 10.375V17.425C67.2818 17.5917 67.2318 17.7333 67.1318 17.85C67.0318 17.95 66.8985 18 66.7318 18H65.4818C65.3152 18 65.1735 17.95 65.0568 17.85C64.9568 17.7333 64.9068 17.5917 64.9068 17.425V10.5C64.9068 9.33333 64.6235 8.425 64.0568 7.775C63.4902 7.10833 62.6568 6.775 61.5568 6.775C60.5235 6.775 59.6902 7.10833 59.0568 7.775C58.4402 8.425 58.1318 9.33333 58.1318 10.5V17.425C58.1318 17.5917 58.0735 17.7333 57.9568 17.85C57.8568 17.95 57.7235 18 57.5568 18H56.3068ZM76.218 23.5C75.0846 23.5 74.1513 23.35 73.418 23.05C72.7013 22.75 72.1346 22.3833 71.718 21.95C71.318 21.5333 71.0263 21.1083 70.843 20.675C70.6763 20.2583 70.5846 19.925 70.568 19.675C70.5513 19.5083 70.6013 19.3667 70.718 19.25C70.8513 19.1333 70.993 19.075 71.143 19.075H72.343C72.493 19.075 72.618 19.1083 72.718 19.175C72.818 19.2417 72.9013 19.3833 72.968 19.6C73.068 19.85 73.218 20.125 73.418 20.425C73.618 20.7417 73.9263 21.0083 74.343 21.225C74.7596 21.4583 75.343 21.575 76.093 21.575C76.8763 21.575 77.5346 21.4667 78.068 21.25C78.6013 21.05 79.0013 20.6833 79.268 20.15C79.5513 19.6333 79.693 18.9167 79.693 18V16.3C79.293 16.8167 78.768 17.25 78.118 17.6C77.468 17.9333 76.6513 18.1 75.668 18.1C74.7346 18.1 73.9346 17.9417 73.268 17.625C72.6013 17.2917 72.0513 16.85 71.618 16.3C71.2013 15.7333 70.8846 15.0917 70.668 14.375C70.468 13.6583 70.3513 12.9083 70.318 12.125C70.3013 11.6583 70.3013 11.2 70.318 10.75C70.3513 9.96667 70.468 9.21667 70.668 8.5C70.8846 7.78333 71.2013 7.14167 71.618 6.575C72.0513 6.00833 72.6013 5.56667 73.268 5.25C73.9346 4.91667 74.7346 4.75 75.668 4.75C76.668 4.75 77.493 4.94167 78.143 5.325C78.8096 5.69167 79.3513 6.14167 79.768 6.675V5.6C79.768 5.43333 79.818 5.29167 79.918 5.175C80.0346 5.05833 80.1763 5 80.343 5H81.493C81.6596 5 81.8013 5.05833 81.918 5.175C82.0346 5.29167 82.093 5.43333 82.093 5.6V17.725C82.093 18.8417 81.9013 19.8333 81.518 20.7C81.1513 21.5667 80.5346 22.25 79.668 22.75C78.818 23.25 77.668 23.5 76.218 23.5ZM76.168 16.1C77.0013 16.1 77.668 15.9083 78.168 15.525C78.6846 15.1417 79.0596 14.6583 79.293 14.075C79.543 13.4917 79.6763 12.9 79.693 12.3C79.7096 12.0667 79.718 11.7833 79.718 11.45C79.718 11.1 79.7096 10.8083 79.693 10.575C79.6763 9.975 79.543 9.38333 79.293 8.8C79.0596 8.21667 78.6846 7.73333 78.168 7.35C77.668 6.96667 77.0013 6.775 76.168 6.775C75.3346 6.775 74.668 6.96667 74.168 7.35C73.668 7.71667 73.3096 8.20833 73.093 8.825C72.8763 9.425 72.7513 10.075 72.718 10.775C72.7013 11.2083 72.7013 11.65 72.718 12.1C72.7513 12.8 72.8763 13.4583 73.093 14.075C73.3096 14.675 73.668 15.1667 74.168 15.55C74.668 15.9167 75.3346 16.1 76.168 16.1ZM93.5293 22.75C93.396 22.75 93.2793 22.7 93.1793 22.6C93.0793 22.5 93.0293 22.3833 93.0293 22.25C93.0293 22.1833 93.0376 22.1167 93.0543 22.05C93.071 21.9833 93.1043 21.9 93.1543 21.8L95.0793 17.225L90.3043 5.95C90.221 5.75 90.1793 5.60833 90.1793 5.525C90.1793 5.375 90.2293 5.25 90.3293 5.15C90.4293 5.05 90.5543 5 90.7043 5H91.9293C92.096 5 92.2293 5.04167 92.3293 5.125C92.4293 5.20833 92.496 5.30833 92.5293 5.425L96.3293 14.525L100.229 5.425C100.279 5.30833 100.346 5.20833 100.429 5.125C100.529 5.04167 100.671 5 100.854 5H102.029C102.179 5 102.304 5.05 102.404 5.15C102.504 5.25 102.554 5.36667 102.554 5.5C102.554 5.58333 102.513 5.73333 102.429 5.95L95.3293 22.325C95.2793 22.4417 95.2043 22.5417 95.1043 22.625C95.021 22.7083 94.8876 22.75 94.7043 22.75H93.5293ZM109.909 18.25C108.643 18.25 107.584 18.0083 106.734 17.525C105.884 17.0417 105.234 16.375 104.784 15.525C104.334 14.6583 104.084 13.675 104.034 12.575C104.018 12.2917 104.009 11.9333 104.009 11.5C104.009 11.05 104.018 10.6917 104.034 10.425C104.084 9.30833 104.334 8.325 104.784 7.475C105.251 6.625 105.909 5.95833 106.759 5.475C107.609 4.99167 108.659 4.75 109.909 4.75C111.159 4.75 112.209 4.99167 113.059 5.475C113.909 5.95833 114.559 6.625 115.009 7.475C115.476 8.325 115.734 9.30833 115.784 10.425C115.801 10.6917 115.809 11.05 115.809 11.5C115.809 11.9333 115.801 12.2917 115.784 12.575C115.734 13.675 115.484 14.6583 115.034 15.525C114.584 16.375 113.934 17.0417 113.084 17.525C112.234 18.0083 111.176 18.25 109.909 18.25ZM109.909 16.325C110.943 16.325 111.768 16 112.384 15.35C113.001 14.6833 113.334 13.7167 113.384 12.45C113.401 12.2 113.409 11.8833 113.409 11.5C113.409 11.1167 113.401 10.8 113.384 10.55C113.334 9.28333 113.001 8.325 112.384 7.675C111.768 7.00833 110.943 6.675 109.909 6.675C108.876 6.675 108.043 7.00833 107.409 7.675C106.793 8.325 106.468 9.28333 106.434 10.55C106.418 10.8 106.409 11.1167 106.409 11.5C106.409 11.8833 106.418 12.2 106.434 12.45C106.468 13.7167 106.793 14.6833 107.409 15.35C108.043 16 108.876 16.325 109.909 16.325ZM123.79 18.25C122.723 18.25 121.815 18.0167 121.065 17.55C120.332 17.0667 119.773 16.4 119.39 15.55C119.007 14.7 118.815 13.725 118.815 12.625V5.575C118.815 5.40833 118.865 5.275 118.965 5.175C119.082 5.05833 119.223 5 119.39 5H120.64C120.807 5 120.94 5.05833 121.04 5.175C121.157 5.275 121.215 5.40833 121.215 5.575V12.5C121.215 14.9833 122.298 16.225 124.465 16.225C125.498 16.225 126.323 15.9 126.94 15.25C127.573 14.5833 127.89 13.6667 127.89 12.5V5.575C127.89 5.40833 127.94 5.275 128.04 5.175C128.157 5.05833 128.298 5 128.465 5H129.69C129.873 5 130.015 5.05833 130.115 5.175C130.215 5.275 130.265 5.40833 130.265 5.575V17.425C130.265 17.5917 130.215 17.7333 130.115 17.85C130.015 17.95 129.873 18 129.69 18H128.54C128.373 18 128.232 17.95 128.115 17.85C128.015 17.7333 127.965 17.5917 127.965 17.425V16.325C127.515 16.9083 126.965 17.375 126.315 17.725C125.682 18.075 124.84 18.25 123.79 18.25ZM134.554 18C134.387 18 134.246 17.95 134.129 17.85C134.029 17.7333 133.979 17.5917 133.979 17.425V5.6C133.979 5.43333 134.029 5.29167 134.129 5.175C134.246 5.05833 134.387 5 134.554 5H135.704C135.871 5 136.012 5.05833 136.129 5.175C136.246 5.29167 136.304 5.43333 136.304 5.6V6.7C136.637 6.13333 137.096 5.70833 137.679 5.425C138.262 5.14167 138.962 5 139.779 5H140.779C140.946 5 141.079 5.05833 141.179 5.175C141.279 5.275 141.329 5.40833 141.329 5.575V6.6C141.329 6.76667 141.279 6.9 141.179 7C141.079 7.1 140.946 7.15 140.779 7.15H139.279C138.379 7.15 137.671 7.41667 137.154 7.95C136.637 8.46667 136.379 9.175 136.379 10.075V17.425C136.379 17.5917 136.321 17.7333 136.204 17.85C136.087 17.95 135.946 18 135.779 18H134.554ZM149.618 22.75C149.451 22.75 149.31 22.6917 149.193 22.575C149.093 22.475 149.043 22.3417 149.043 22.175V5.575C149.043 5.40833 149.093 5.275 149.193 5.175C149.31 5.05833 149.451 5 149.618 5H150.768C150.935 5 151.068 5.05833 151.168 5.175C151.285 5.275 151.343 5.40833 151.343 5.575V6.675C151.743 6.125 152.276 5.66667 152.943 5.3C153.61 4.93333 154.443 4.75 155.443 4.75C156.376 4.75 157.168 4.90833 157.818 5.225C158.485 5.54167 159.026 5.975 159.443 6.525C159.876 7.075 160.201 7.7 160.418 8.4C160.635 9.1 160.751 9.85 160.768 10.65C160.785 10.9167 160.793 11.2 160.793 11.5C160.793 11.8 160.785 12.0833 160.768 12.35C160.751 13.1333 160.635 13.8833 160.418 14.6C160.201 15.3 159.876 15.925 159.443 16.475C159.026 17.0083 158.485 17.4417 157.818 17.775C157.168 18.0917 156.376 18.25 155.443 18.25C154.476 18.25 153.66 18.075 152.993 17.725C152.343 17.3583 151.81 16.9083 151.393 16.375V22.175C151.393 22.3417 151.343 22.475 151.243 22.575C151.143 22.6917 151.001 22.75 150.818 22.75H149.618ZM154.918 16.225C155.785 16.225 156.46 16.0417 156.943 15.675C157.443 15.2917 157.801 14.8 158.018 14.2C158.235 13.5833 158.36 12.925 158.393 12.225C158.41 11.7417 158.41 11.2583 158.393 10.775C158.36 10.075 158.235 9.425 158.018 8.825C157.801 8.20833 157.443 7.71667 156.943 7.35C156.46 6.96667 155.785 6.775 154.918 6.775C154.101 6.775 153.435 6.96667 152.918 7.35C152.418 7.73333 152.043 8.225 151.793 8.825C151.56 9.40833 151.426 10.0083 151.393 10.625C151.376 10.8917 151.368 11.2083 151.368 11.575C151.368 11.9417 151.376 12.2667 151.393 12.55C151.41 13.1333 151.543 13.7083 151.793 14.275C152.06 14.8417 152.451 15.3083 152.968 15.675C153.485 16.0417 154.135 16.225 154.918 16.225ZM164.486 18C164.319 18 164.177 17.95 164.061 17.85C163.961 17.7333 163.911 17.5917 163.911 17.425V5.6C163.911 5.43333 163.961 5.29167 164.061 5.175C164.177 5.05833 164.319 5 164.486 5H165.636C165.802 5 165.944 5.05833 166.061 5.175C166.177 5.29167 166.236 5.43333 166.236 5.6V6.7C166.569 6.13333 167.027 5.70833 167.611 5.425C168.194 5.14167 168.894 5 169.711 5H170.711C170.877 5 171.011 5.05833 171.111 5.175C171.211 5.275 171.261 5.40833 171.261 5.575V6.6C171.261 6.76667 171.211 6.9 171.111 7C171.011 7.1 170.877 7.15 170.711 7.15H169.211C168.311 7.15 167.602 7.41667 167.086 7.95C166.569 8.46667 166.311 9.175 166.311 10.075V17.425C166.311 17.5917 166.252 17.7333 166.136 17.85C166.019 17.95 165.877 18 165.711 18H164.486ZM178.488 18.25C177.222 18.25 176.163 18.0083 175.313 17.525C174.463 17.0417 173.813 16.375 173.363 15.525C172.913 14.6583 172.663 13.675 172.613 12.575C172.597 12.2917 172.588 11.9333 172.588 11.5C172.588 11.05 172.597 10.6917 172.613 10.425C172.663 9.30833 172.913 8.325 173.363 7.475C173.83 6.625 174.488 5.95833 175.338 5.475C176.188 4.99167 177.238 4.75 178.488 4.75C179.738 4.75 180.788 4.99167 181.638 5.475C182.488 5.95833 183.138 6.625 183.588 7.475C184.055 8.325 184.313 9.30833 184.363 10.425C184.38 10.6917 184.388 11.05 184.388 11.5C184.388 11.9333 184.38 12.2917 184.363 12.575C184.313 13.675 184.063 14.6583 183.613 15.525C183.163 16.375 182.513 17.0417 181.663 17.525C180.813 18.0083 179.755 18.25 178.488 18.25ZM178.488 16.325C179.522 16.325 180.347 16 180.963 15.35C181.58 14.6833 181.913 13.7167 181.963 12.45C181.98 12.2 181.988 11.8833 181.988 11.5C181.988 11.1167 181.98 10.8 181.963 10.55C181.913 9.28333 181.58 8.325 180.963 7.675C180.347 7.00833 179.522 6.675 178.488 6.675C177.455 6.675 176.622 7.00833 175.988 7.675C175.372 8.325 175.047 9.28333 175.013 10.55C174.997 10.8 174.988 11.1167 174.988 11.5C174.988 11.8833 174.997 12.2 175.013 12.45C175.047 13.7167 175.372 14.6833 175.988 15.35C176.622 16 177.455 16.325 178.488 16.325ZM192.269 18.25C191.352 18.25 190.561 18.0917 189.894 17.775C189.227 17.4417 188.677 17 188.244 16.45C187.827 15.8833 187.511 15.2417 187.294 14.525C187.094 13.8083 186.977 13.05 186.944 12.25C186.927 11.9833 186.919 11.7333 186.919 11.5C186.919 11.2667 186.927 11.0167 186.944 10.75C186.977 9.96667 187.094 9.21667 187.294 8.5C187.511 7.78333 187.827 7.14167 188.244 6.575C188.677 6.00833 189.227 5.56667 189.894 5.25C190.561 4.91667 191.352 4.75 192.269 4.75C193.252 4.75 194.069 4.925 194.719 5.275C195.369 5.625 195.902 6.05833 196.319 6.575V0.824999C196.319 0.658333 196.369 0.524999 196.469 0.425C196.586 0.308333 196.727 0.249999 196.894 0.249999H198.094C198.261 0.249999 198.394 0.308333 198.494 0.425C198.611 0.524999 198.669 0.658333 198.669 0.824999V17.425C198.669 17.5917 198.611 17.7333 198.494 17.85C198.394 17.95 198.261 18 198.094 18H196.969C196.786 18 196.644 17.95 196.544 17.85C196.444 17.7333 196.394 17.5917 196.394 17.425V16.375C195.977 16.9083 195.436 17.3583 194.769 17.725C194.102 18.075 193.269 18.25 192.269 18.25ZM192.794 16.225C193.627 16.225 194.294 16.0333 194.794 15.65C195.294 15.2667 195.669 14.7833 195.919 14.2C196.169 13.6 196.302 12.9917 196.319 12.375C196.336 12.1083 196.344 11.7917 196.344 11.425C196.344 11.0417 196.336 10.7167 196.319 10.45C196.302 9.86667 196.161 9.29167 195.894 8.725C195.644 8.15833 195.261 7.69167 194.744 7.325C194.244 6.95833 193.594 6.775 192.794 6.775C191.944 6.775 191.269 6.96667 190.769 7.35C190.269 7.71667 189.911 8.20833 189.694 8.825C189.477 9.425 189.352 10.075 189.319 10.775C189.302 11.2583 189.302 11.7417 189.319 12.225C189.352 12.925 189.477 13.5833 189.694 14.2C189.911 14.8 190.269 15.2917 190.769 15.675C191.269 16.0417 191.944 16.225 192.794 16.225ZM207.237 18.25C206.17 18.25 205.262 18.0167 204.512 17.55C203.779 17.0667 203.22 16.4 202.837 15.55C202.454 14.7 202.262 13.725 202.262 12.625V5.575C202.262 5.40833 202.312 5.275 202.412 5.175C202.529 5.05833 202.67 5 202.837 5H204.087C204.254 5 204.387 5.05833 204.487 5.175C204.604 5.275 204.662 5.40833 204.662 5.575V12.5C204.662 14.9833 205.745 16.225 207.912 16.225C208.945 16.225 209.77 15.9 210.387 15.25C211.02 14.5833 211.337 13.6667 211.337 12.5V5.575C211.337 5.40833 211.387 5.275 211.487 5.175C211.604 5.05833 211.745 5 211.912 5H213.137C213.32 5 213.462 5.05833 213.562 5.175C213.662 5.275 213.712 5.40833 213.712 5.575V17.425C213.712 17.5917 213.662 17.7333 213.562 17.85C213.462 17.95 213.32 18 213.137 18H211.987C211.82 18 211.679 17.95 211.562 17.85C211.462 17.7333 211.412 17.5917 211.412 17.425V16.325C210.962 16.9083 210.412 17.375 209.762 17.725C209.129 18.075 208.287 18.25 207.237 18.25ZM222.676 18.25C221.493 18.25 220.468 18.025 219.601 17.575C218.751 17.1083 218.093 16.45 217.626 15.6C217.16 14.7333 216.91 13.7 216.876 12.5C216.86 12.25 216.851 11.9167 216.851 11.5C216.851 11.0833 216.86 10.75 216.876 10.5C216.91 9.3 217.16 8.275 217.626 7.425C218.093 6.55833 218.751 5.9 219.601 5.45C220.468 4.98333 221.493 4.75 222.676 4.75C223.643 4.75 224.468 4.88333 225.151 5.15C225.851 5.41667 226.426 5.75833 226.876 6.175C227.326 6.59167 227.66 7.04167 227.876 7.525C228.11 8.00833 228.235 8.46667 228.251 8.9C228.268 9.06667 228.218 9.2 228.101 9.3C227.985 9.4 227.843 9.45 227.676 9.45H226.476C226.31 9.45 226.185 9.41667 226.101 9.35C226.018 9.26667 225.935 9.13333 225.851 8.95C225.551 8.13333 225.143 7.55833 224.626 7.225C224.11 6.89167 223.468 6.725 222.701 6.725C221.701 6.725 220.885 7.03333 220.251 7.65C219.635 8.26667 219.301 9.25833 219.251 10.625C219.235 11.225 219.235 11.8083 219.251 12.375C219.301 13.7583 219.635 14.7583 220.251 15.375C220.885 15.975 221.701 16.275 222.701 16.275C223.468 16.275 224.11 16.1083 224.626 15.775C225.143 15.4417 225.551 14.8667 225.851 14.05C225.935 13.8667 226.018 13.7417 226.101 13.675C226.185 13.5917 226.31 13.55 226.476 13.55H227.676C227.843 13.55 227.985 13.6 228.101 13.7C228.218 13.8 228.268 13.9333 228.251 14.1C228.235 14.45 228.16 14.8083 228.026 15.175C227.893 15.5417 227.676 15.9167 227.376 16.3C227.093 16.6667 226.735 17 226.301 17.3C225.868 17.5833 225.343 17.8167 224.726 18C224.126 18.1667 223.443 18.25 222.676 18.25ZM236.295 18C235.362 18 234.603 17.825 234.02 17.475C233.437 17.1083 233.012 16.6 232.745 15.95C232.478 15.2833 232.345 14.5 232.345 13.6V7H230.395C230.228 7 230.087 6.95 229.97 6.85C229.87 6.73333 229.82 6.59167 229.82 6.425V5.575C229.82 5.40833 229.87 5.275 229.97 5.175C230.087 5.05833 230.228 5 230.395 5H232.345V0.824999C232.345 0.658333 232.395 0.524999 232.495 0.425C232.612 0.308333 232.753 0.249999 232.92 0.249999H234.095C234.262 0.249999 234.395 0.308333 234.495 0.425C234.612 0.524999 234.67 0.658333 234.67 0.824999V5H237.77C237.937 5 238.07 5.05833 238.17 5.175C238.287 5.275 238.345 5.40833 238.345 5.575V6.425C238.345 6.59167 238.287 6.73333 238.17 6.85C238.07 6.95 237.937 7 237.77 7H234.67V13.425C234.67 14.2083 234.803 14.825 235.07 15.275C235.337 15.725 235.812 15.95 236.495 15.95H238.02C238.187 15.95 238.32 16.0083 238.42 16.125C238.537 16.225 238.595 16.3583 238.595 16.525V17.425C238.595 17.5917 238.537 17.7333 238.42 17.85C238.32 17.95 238.187 18 238.02 18H236.295ZM245.486 18.25C244.552 18.25 243.752 18.1333 243.086 17.9C242.419 17.6667 241.877 17.3833 241.461 17.05C241.044 16.7167 240.727 16.3833 240.511 16.05C240.311 15.7167 240.202 15.45 240.186 15.25C240.169 15.0667 240.227 14.925 240.361 14.825C240.494 14.725 240.627 14.675 240.761 14.675H241.861C241.961 14.675 242.036 14.6917 242.086 14.725C242.152 14.7417 242.236 14.8083 242.336 14.925C242.552 15.1583 242.794 15.3917 243.061 15.625C243.327 15.8583 243.652 16.05 244.036 16.2C244.436 16.35 244.927 16.425 245.511 16.425C246.361 16.425 247.061 16.2667 247.611 15.95C248.161 15.6167 248.436 15.1333 248.436 14.5C248.436 14.0833 248.319 13.75 248.086 13.5C247.869 13.25 247.469 13.025 246.886 12.825C246.319 12.625 245.536 12.4167 244.536 12.2C243.536 11.9667 242.744 11.6833 242.161 11.35C241.577 11 241.161 10.5917 240.911 10.125C240.661 9.64167 240.536 9.1 240.536 8.5C240.536 7.88333 240.719 7.29167 241.086 6.725C241.452 6.14167 241.986 5.66667 242.686 5.3C243.402 4.93333 244.294 4.75 245.361 4.75C246.227 4.75 246.969 4.85833 247.586 5.075C248.202 5.29167 248.711 5.56667 249.111 5.9C249.511 6.21667 249.811 6.53333 250.011 6.85C250.211 7.16667 250.319 7.43333 250.336 7.65C250.352 7.81667 250.302 7.95833 250.186 8.075C250.069 8.175 249.936 8.225 249.786 8.225H248.736C248.619 8.225 248.519 8.2 248.436 8.15C248.369 8.1 248.302 8.04167 248.236 7.975C248.069 7.75833 247.869 7.54167 247.636 7.325C247.419 7.10833 247.127 6.93333 246.761 6.8C246.411 6.65 245.944 6.575 245.361 6.575C244.527 6.575 243.902 6.75 243.486 7.1C243.069 7.45 242.861 7.89167 242.861 8.425C242.861 8.74167 242.952 9.025 243.136 9.275C243.319 9.525 243.669 9.75 244.186 9.95C244.702 10.15 245.469 10.3667 246.486 10.6C247.586 10.8167 248.452 11.1083 249.086 11.475C249.719 11.8417 250.169 12.2667 250.436 12.75C250.702 13.2333 250.836 13.7917 250.836 14.425C250.836 15.125 250.627 15.7667 250.211 16.35C249.811 16.9333 249.211 17.4 248.411 17.75C247.627 18.0833 246.652 18.25 245.486 18.25ZM5.475 48.25C4.64167 48.25 3.88333 48.0833 3.2 47.75C2.51667 47.4167 1.96667 46.9667 1.55 46.4C1.13333 45.8333 0.925 45.1917 0.925 44.475C0.925 43.325 1.39167 42.4083 2.325 41.725C3.25833 41.0417 4.475 40.5917 5.975 40.375L9.7 39.85V39.125C9.7 38.325 9.46667 37.7 9 37.25C8.55 36.8 7.80833 36.575 6.775 36.575C6.025 36.575 5.41667 36.725 4.95 37.025C4.5 37.325 4.18333 37.7083 4 38.175C3.9 38.425 3.725 38.55 3.475 38.55H2.35C2.16667 38.55 2.025 38.5 1.925 38.4C1.84167 38.2833 1.8 38.15 1.8 38C1.8 37.75 1.89167 37.4417 2.075 37.075C2.275 36.7083 2.575 36.35 2.975 36C3.375 35.65 3.88333 35.3583 4.5 35.125C5.13333 34.875 5.9 34.75 6.8 34.75C7.8 34.75 8.64167 34.8833 9.325 35.15C10.0083 35.4 10.5417 35.7417 10.925 36.175C11.325 36.6083 11.6083 37.1 11.775 37.65C11.9583 38.2 12.05 38.7583 12.05 39.325V47.425C12.05 47.5917 11.9917 47.7333 11.875 47.85C11.775 47.95 11.6417 48 11.475 48H10.325C10.1417 48 10 47.95 9.9 47.85C9.8 47.7333 9.75 47.5917 9.75 47.425V46.35C9.53333 46.65 9.24167 46.95 8.875 47.25C8.50833 47.5333 8.05 47.775 7.5 47.975C6.95 48.1583 6.275 48.25 5.475 48.25ZM6 46.375C6.68333 46.375 7.30833 46.2333 7.875 45.95C8.44167 45.65 8.88333 45.1917 9.2 44.575C9.53333 43.9583 9.7 43.1833 9.7 42.25V41.55L6.8 41.975C5.61667 42.1417 4.725 42.425 4.125 42.825C3.525 43.2083 3.225 43.7 3.225 44.3C3.225 44.7667 3.35833 45.1583 3.625 45.475C3.90833 45.775 4.25833 46 4.675 46.15C5.10833 46.3 5.55 46.375 6 46.375ZM20.8939 48.25C19.7106 48.25 18.6856 48.025 17.8189 47.575C16.9689 47.1083 16.3106 46.45 15.8439 45.6C15.3773 44.7333 15.1273 43.7 15.0939 42.5C15.0773 42.25 15.0689 41.9167 15.0689 41.5C15.0689 41.0833 15.0773 40.75 15.0939 40.5C15.1273 39.3 15.3773 38.275 15.8439 37.425C16.3106 36.5583 16.9689 35.9 17.8189 35.45C18.6856 34.9833 19.7106 34.75 20.8939 34.75C21.8606 34.75 22.6856 34.8833 23.3689 35.15C24.0689 35.4167 24.6439 35.7583 25.0939 36.175C25.5439 36.5917 25.8773 37.0417 26.0939 37.525C26.3273 38.0083 26.4523 38.4667 26.4689 38.9C26.4856 39.0667 26.4356 39.2 26.3189 39.3C26.2023 39.4 26.0606 39.45 25.8939 39.45H24.6939C24.5273 39.45 24.4023 39.4167 24.3189 39.35C24.2356 39.2667 24.1523 39.1333 24.0689 38.95C23.7689 38.1333 23.3606 37.5583 22.8439 37.225C22.3273 36.8917 21.6856 36.725 20.9189 36.725C19.9189 36.725 19.1023 37.0333 18.4689 37.65C17.8523 38.2667 17.5189 39.2583 17.4689 40.625C17.4523 41.225 17.4523 41.8083 17.4689 42.375C17.5189 43.7583 17.8523 44.7583 18.4689 45.375C19.1023 45.975 19.9189 46.275 20.9189 46.275C21.6856 46.275 22.3273 46.1083 22.8439 45.775C23.3606 45.4417 23.7689 44.8667 24.0689 44.05C24.1523 43.8667 24.2356 43.7417 24.3189 43.675C24.4023 43.5917 24.5273 43.55 24.6939 43.55H25.8939C26.0606 43.55 26.2023 43.6 26.3189 43.7C26.4356 43.8 26.4856 43.9333 26.4689 44.1C26.4523 44.45 26.3773 44.8083 26.2439 45.175C26.1106 45.5417 25.8939 45.9167 25.5939 46.3C25.3106 46.6667 24.9523 47 24.5189 47.3C24.0856 47.5833 23.5606 47.8167 22.9439 48C22.3439 48.1667 21.6606 48.25 20.8939 48.25ZM30.0129 48C29.8462 48 29.7046 47.95 29.5879 47.85C29.4879 47.7333 29.4379 47.5917 29.4379 47.425V35.6C29.4379 35.4333 29.4879 35.2917 29.5879 35.175C29.7046 35.0583 29.8462 35 30.0129 35H31.1629C31.3296 35 31.4712 35.0583 31.5879 35.175C31.7046 35.2917 31.7629 35.4333 31.7629 35.6V36.7C32.0962 36.1333 32.5546 35.7083 33.1379 35.425C33.7212 35.1417 34.4212 35 35.2379 35H36.2379C36.4046 35 36.5379 35.0583 36.6379 35.175C36.7379 35.275 36.7879 35.4083 36.7879 35.575V36.6C36.7879 36.7667 36.7379 36.9 36.6379 37C36.5379 37.1 36.4046 37.15 36.2379 37.15H34.7379C33.8379 37.15 33.1296 37.4167 32.6129 37.95C32.0962 38.4667 31.8379 39.175 31.8379 40.075V47.425C31.8379 47.5917 31.7796 47.7333 31.6629 47.85C31.5462 47.95 31.4046 48 31.2379 48H30.0129ZM44.0158 48.25C42.7492 48.25 41.6908 48.0083 40.8408 47.525C39.9908 47.0417 39.3408 46.375 38.8908 45.525C38.4408 44.6583 38.1908 43.675 38.1408 42.575C38.1242 42.2917 38.1158 41.9333 38.1158 41.5C38.1158 41.05 38.1242 40.6917 38.1408 40.425C38.1908 39.3083 38.4408 38.325 38.8908 37.475C39.3575 36.625 40.0158 35.9583 40.8658 35.475C41.7158 34.9917 42.7658 34.75 44.0158 34.75C45.2658 34.75 46.3158 34.9917 47.1658 35.475C48.0158 35.9583 48.6658 36.625 49.1158 37.475C49.5825 38.325 49.8408 39.3083 49.8908 40.425C49.9075 40.6917 49.9158 41.05 49.9158 41.5C49.9158 41.9333 49.9075 42.2917 49.8908 42.575C49.8408 43.675 49.5908 44.6583 49.1408 45.525C48.6908 46.375 48.0408 47.0417 47.1908 47.525C46.3408 48.0083 45.2825 48.25 44.0158 48.25ZM44.0158 46.325C45.0492 46.325 45.8742 46 46.4908 45.35C47.1075 44.6833 47.4408 43.7167 47.4908 42.45C47.5075 42.2 47.5158 41.8833 47.5158 41.5C47.5158 41.1167 47.5075 40.8 47.4908 40.55C47.4408 39.2833 47.1075 38.325 46.4908 37.675C45.8742 37.0083 45.0492 36.675 44.0158 36.675C42.9825 36.675 42.1492 37.0083 41.5158 37.675C40.8992 38.325 40.5742 39.2833 40.5408 40.55C40.5242 40.8 40.5158 41.1167 40.5158 41.5C40.5158 41.8833 40.5242 42.2 40.5408 42.45C40.5742 43.7167 40.8992 44.6833 41.5158 45.35C42.1492 46 42.9825 46.325 44.0158 46.325ZM57.5463 48.25C56.613 48.25 55.813 48.1333 55.1463 47.9C54.4796 47.6667 53.938 47.3833 53.5213 47.05C53.1046 46.7167 52.788 46.3833 52.5713 46.05C52.3713 45.7167 52.263 45.45 52.2463 45.25C52.2296 45.0667 52.288 44.925 52.4213 44.825C52.5546 44.725 52.688 44.675 52.8213 44.675H53.9213C54.0213 44.675 54.0963 44.6917 54.1463 44.725C54.213 44.7417 54.2963 44.8083 54.3963 44.925C54.613 45.1583 54.8546 45.3917 55.1213 45.625C55.388 45.8583 55.713 46.05 56.0963 46.2C56.4963 46.35 56.988 46.425 57.5713 46.425C58.4213 46.425 59.1213 46.2667 59.6713 45.95C60.2213 45.6167 60.4963 45.1333 60.4963 44.5C60.4963 44.0833 60.3796 43.75 60.1463 43.5C59.9296 43.25 59.5296 43.025 58.9463 42.825C58.3796 42.625 57.5963 42.4167 56.5963 42.2C55.5963 41.9667 54.8046 41.6833 54.2213 41.35C53.638 41 53.2213 40.5917 52.9713 40.125C52.7213 39.6417 52.5963 39.1 52.5963 38.5C52.5963 37.8833 52.7796 37.2917 53.1463 36.725C53.513 36.1417 54.0463 35.6667 54.7463 35.3C55.463 34.9333 56.3546 34.75 57.4213 34.75C58.288 34.75 59.0296 34.8583 59.6463 35.075C60.263 35.2917 60.7713 35.5667 61.1713 35.9C61.5713 36.2167 61.8713 36.5333 62.0713 36.85C62.2713 37.1667 62.3796 37.4333 62.3963 37.65C62.413 37.8167 62.363 37.9583 62.2463 38.075C62.1296 38.175 61.9963 38.225 61.8463 38.225H60.7963C60.6796 38.225 60.5796 38.2 60.4963 38.15C60.4296 38.1 60.363 38.0417 60.2963 37.975C60.1296 37.7583 59.9296 37.5417 59.6963 37.325C59.4796 37.1083 59.188 36.9333 58.8213 36.8C58.4713 36.65 58.0046 36.575 57.4213 36.575C56.588 36.575 55.963 36.75 55.5463 37.1C55.1296 37.45 54.9213 37.8917 54.9213 38.425C54.9213 38.7417 55.013 39.025 55.1963 39.275C55.3796 39.525 55.7296 39.75 56.2463 39.95C56.763 40.15 57.5296 40.3667 58.5463 40.6C59.6463 40.8167 60.513 41.1083 61.1463 41.475C61.7796 41.8417 62.2296 42.2667 62.4963 42.75C62.763 43.2333 62.8963 43.7917 62.8963 44.425C62.8963 45.125 62.688 45.7667 62.2713 46.35C61.8713 46.9333 61.2713 47.4 60.4713 47.75C59.688 48.0833 58.713 48.25 57.5463 48.25ZM70.2904 48.25C69.3571 48.25 68.5571 48.1333 67.8904 47.9C67.2238 47.6667 66.6821 47.3833 66.2654 47.05C65.8488 46.7167 65.5321 46.3833 65.3154 46.05C65.1154 45.7167 65.0071 45.45 64.9904 45.25C64.9738 45.0667 65.0321 44.925 65.1654 44.825C65.2988 44.725 65.4321 44.675 65.5654 44.675H66.6654C66.7654 44.675 66.8404 44.6917 66.8904 44.725C66.9571 44.7417 67.0404 44.8083 67.1404 44.925C67.3571 45.1583 67.5988 45.3917 67.8654 45.625C68.1321 45.8583 68.4571 46.05 68.8404 46.2C69.2404 46.35 69.7321 46.425 70.3154 46.425C71.1654 46.425 71.8654 46.2667 72.4154 45.95C72.9654 45.6167 73.2404 45.1333 73.2404 44.5C73.2404 44.0833 73.1238 43.75 72.8904 43.5C72.6738 43.25 72.2738 43.025 71.6904 42.825C71.1238 42.625 70.3404 42.4167 69.3404 42.2C68.3404 41.9667 67.5488 41.6833 66.9654 41.35C66.3821 41 65.9654 40.5917 65.7154 40.125C65.4654 39.6417 65.3404 39.1 65.3404 38.5C65.3404 37.8833 65.5238 37.2917 65.8904 36.725C66.2571 36.1417 66.7904 35.6667 67.4904 35.3C68.2071 34.9333 69.0988 34.75 70.1654 34.75C71.0321 34.75 71.7738 34.8583 72.3904 35.075C73.0071 35.2917 73.5154 35.5667 73.9154 35.9C74.3154 36.2167 74.6154 36.5333 74.8154 36.85C75.0154 37.1667 75.1238 37.4333 75.1404 37.65C75.1571 37.8167 75.1071 37.9583 74.9904 38.075C74.8738 38.175 74.7404 38.225 74.5904 38.225H73.5404C73.4238 38.225 73.3238 38.2 73.2404 38.15C73.1738 38.1 73.1071 38.0417 73.0404 37.975C72.8738 37.7583 72.6738 37.5417 72.4404 37.325C72.2238 37.1083 71.9321 36.9333 71.5654 36.8C71.2154 36.65 70.7488 36.575 70.1654 36.575C69.3321 36.575 68.7071 36.75 68.2904 37.1C67.8738 37.45 67.6654 37.8917 67.6654 38.425C67.6654 38.7417 67.7571 39.025 67.9404 39.275C68.1238 39.525 68.4738 39.75 68.9904 39.95C69.5071 40.15 70.2738 40.3667 71.2904 40.6C72.3904 40.8167 73.2571 41.1083 73.8904 41.475C74.5238 41.8417 74.9738 42.2667 75.2404 42.75C75.5071 43.2333 75.6404 43.7917 75.6404 44.425C75.6404 45.125 75.4321 45.7667 75.0154 46.35C74.6154 46.9333 74.0154 47.4 73.2154 47.75C72.4321 48.0833 71.4571 48.25 70.2904 48.25ZM91.0875 48.25C90.0875 48.25 89.2542 48.075 88.5875 47.725C87.9208 47.3583 87.3875 46.9083 86.9875 46.375V47.425C86.9875 47.5917 86.9292 47.7333 86.8125 47.85C86.7125 47.95 86.5792 48 86.4125 48H85.2625C85.0958 48 84.9542 47.95 84.8375 47.85C84.7375 47.7333 84.6875 47.5917 84.6875 47.425V30.825C84.6875 30.6583 84.7375 30.525 84.8375 30.425C84.9542 30.3083 85.0958 30.25 85.2625 30.25H86.4625C86.6458 30.25 86.7875 30.3083 86.8875 30.425C86.9875 30.525 87.0375 30.6583 87.0375 30.825V36.575C87.4542 36.0583 87.9875 35.625 88.6375 35.275C89.3042 34.925 90.1208 34.75 91.0875 34.75C92.0208 34.75 92.8125 34.9167 93.4625 35.25C94.1292 35.5667 94.6708 36.0083 95.0875 36.575C95.5208 37.1417 95.8458 37.7833 96.0625 38.5C96.2792 39.2167 96.3958 39.9667 96.4125 40.75C96.4292 41.0167 96.4375 41.2667 96.4375 41.5C96.4375 41.7333 96.4292 41.9833 96.4125 42.25C96.3958 43.05 96.2792 43.8083 96.0625 44.525C95.8458 45.2417 95.5208 45.8833 95.0875 46.45C94.6708 47 94.1292 47.4417 93.4625 47.775C92.8125 48.0917 92.0208 48.25 91.0875 48.25ZM90.5625 46.225C91.4292 46.225 92.1042 46.0417 92.5875 45.675C93.0875 45.2917 93.4458 44.8 93.6625 44.2C93.8792 43.5833 94.0042 42.925 94.0375 42.225C94.0542 41.7417 94.0542 41.2583 94.0375 40.775C94.0042 40.075 93.8792 39.425 93.6625 38.825C93.4458 38.2083 93.0875 37.7167 92.5875 37.35C92.1042 36.9667 91.4292 36.775 90.5625 36.775C89.7792 36.775 89.1292 36.9583 88.6125 37.325C88.0958 37.6917 87.7042 38.1583 87.4375 38.725C87.1875 39.2917 87.0542 39.8667 87.0375 40.45C87.0208 40.7167 87.0125 41.0417 87.0125 41.425C87.0125 41.7917 87.0208 42.1083 87.0375 42.375C87.0708 42.9917 87.2042 43.6 87.4375 44.2C87.6875 44.7833 88.0625 45.2667 88.5625 45.65C89.0792 46.0333 89.7458 46.225 90.5625 46.225ZM104.856 48.25C103.589 48.25 102.531 48.0083 101.681 47.525C100.831 47.0417 100.181 46.375 99.7307 45.525C99.2807 44.6583 99.0307 43.675 98.9807 42.575C98.964 42.2917 98.9557 41.9333 98.9557 41.5C98.9557 41.05 98.964 40.6917 98.9807 40.425C99.0307 39.3083 99.2807 38.325 99.7307 37.475C100.197 36.625 100.856 35.9583 101.706 35.475C102.556 34.9917 103.606 34.75 104.856 34.75C106.106 34.75 107.156 34.9917 108.006 35.475C108.856 35.9583 109.506 36.625 109.956 37.475C110.422 38.325 110.681 39.3083 110.731 40.425C110.747 40.6917 110.756 41.05 110.756 41.5C110.756 41.9333 110.747 42.2917 110.731 42.575C110.681 43.675 110.431 44.6583 109.981 45.525C109.531 46.375 108.881 47.0417 108.031 47.525C107.181 48.0083 106.122 48.25 104.856 48.25ZM104.856 46.325C105.889 46.325 106.714 46 107.331 45.35C107.947 44.6833 108.281 43.7167 108.331 42.45C108.347 42.2 108.356 41.8833 108.356 41.5C108.356 41.1167 108.347 40.8 108.331 40.55C108.281 39.2833 107.947 38.325 107.331 37.675C106.714 37.0083 105.889 36.675 104.856 36.675C103.822 36.675 102.989 37.0083 102.356 37.675C101.739 38.325 101.414 39.2833 101.381 40.55C101.364 40.8 101.356 41.1167 101.356 41.5C101.356 41.8833 101.364 42.2 101.381 42.45C101.414 43.7167 101.739 44.6833 102.356 45.35C102.989 46 103.822 46.325 104.856 46.325ZM114.461 48C114.294 48 114.153 47.95 114.036 47.85C113.936 47.7333 113.886 47.5917 113.886 47.425V35.6C113.886 35.4333 113.936 35.2917 114.036 35.175C114.153 35.0583 114.294 35 114.461 35H115.611C115.778 35 115.919 35.0583 116.036 35.175C116.153 35.2917 116.211 35.4333 116.211 35.6V36.7C116.544 36.1333 117.003 35.7083 117.586 35.425C118.169 35.1417 118.869 35 119.686 35H120.686C120.853 35 120.986 35.0583 121.086 35.175C121.186 35.275 121.236 35.4083 121.236 35.575V36.6C121.236 36.7667 121.186 36.9 121.086 37C120.986 37.1 120.853 37.15 120.686 37.15H119.186C118.286 37.15 117.578 37.4167 117.061 37.95C116.544 38.4667 116.286 39.175 116.286 40.075V47.425C116.286 47.5917 116.228 47.7333 116.111 47.85C115.994 47.95 115.853 48 115.686 48H114.461ZM127.865 48.25C126.948 48.25 126.156 48.0917 125.49 47.775C124.823 47.4417 124.273 47 123.84 46.45C123.423 45.8833 123.106 45.2417 122.89 44.525C122.69 43.8083 122.573 43.05 122.54 42.25C122.523 41.9833 122.515 41.7333 122.515 41.5C122.515 41.2667 122.523 41.0167 122.54 40.75C122.573 39.9667 122.69 39.2167 122.89 38.5C123.106 37.7833 123.423 37.1417 123.84 36.575C124.273 36.0083 124.823 35.5667 125.49 35.25C126.156 34.9167 126.948 34.75 127.865 34.75C128.848 34.75 129.665 34.925 130.315 35.275C130.965 35.625 131.498 36.0583 131.915 36.575V30.825C131.915 30.6583 131.965 30.525 132.065 30.425C132.181 30.3083 132.323 30.25 132.49 30.25H133.69C133.856 30.25 133.99 30.3083 134.09 30.425C134.206 30.525 134.265 30.6583 134.265 30.825V47.425C134.265 47.5917 134.206 47.7333 134.09 47.85C133.99 47.95 133.856 48 133.69 48H132.565C132.381 48 132.24 47.95 132.14 47.85C132.04 47.7333 131.99 47.5917 131.99 47.425V46.375C131.573 46.9083 131.031 47.3583 130.365 47.725C129.698 48.075 128.865 48.25 127.865 48.25ZM128.39 46.225C129.223 46.225 129.89 46.0333 130.39 45.65C130.89 45.2667 131.265 44.7833 131.515 44.2C131.765 43.6 131.898 42.9917 131.915 42.375C131.931 42.1083 131.94 41.7917 131.94 41.425C131.94 41.0417 131.931 40.7167 131.915 40.45C131.898 39.8667 131.756 39.2917 131.49 38.725C131.24 38.1583 130.856 37.6917 130.34 37.325C129.84 36.9583 129.19 36.775 128.39 36.775C127.54 36.775 126.865 36.9667 126.365 37.35C125.865 37.7167 125.506 38.2083 125.29 38.825C125.073 39.425 124.948 40.075 124.915 40.775C124.898 41.2583 124.898 41.7417 124.915 42.225C124.948 42.925 125.073 43.5833 125.29 44.2C125.506 44.8 125.865 45.2917 126.365 45.675C126.865 46.0417 127.54 46.225 128.39 46.225ZM143.158 48.25C141.441 48.25 140.074 47.725 139.058 46.675C138.041 45.6083 137.483 44.1583 137.383 42.325C137.366 42.1083 137.358 41.8333 137.358 41.5C137.358 41.15 137.366 40.8667 137.383 40.65C137.449 39.4667 137.724 38.4333 138.208 37.55C138.691 36.65 139.349 35.9583 140.183 35.475C141.033 34.9917 142.024 34.75 143.158 34.75C144.424 34.75 145.483 35.0167 146.333 35.55C147.199 36.0833 147.858 36.8417 148.308 37.825C148.758 38.8083 148.983 39.9583 148.983 41.275V41.7C148.983 41.8833 148.924 42.025 148.808 42.125C148.708 42.225 148.574 42.275 148.408 42.275H139.758C139.758 42.2917 139.758 42.325 139.758 42.375C139.758 42.425 139.758 42.4667 139.758 42.5C139.791 43.1833 139.941 43.825 140.208 44.425C140.474 45.0083 140.858 45.4833 141.358 45.85C141.858 46.2167 142.458 46.4 143.158 46.4C143.758 46.4 144.258 46.3083 144.658 46.125C145.058 45.9417 145.383 45.7417 145.633 45.525C145.883 45.2917 146.049 45.1167 146.133 45C146.283 44.7833 146.399 44.6583 146.483 44.625C146.566 44.575 146.699 44.55 146.883 44.55H148.083C148.249 44.55 148.383 44.6 148.483 44.7C148.599 44.7833 148.649 44.9083 148.633 45.075C148.616 45.325 148.483 45.6333 148.233 46C147.983 46.35 147.624 46.7 147.158 47.05C146.691 47.4 146.124 47.6917 145.458 47.925C144.791 48.1417 144.024 48.25 143.158 48.25ZM139.758 40.55H146.608V40.475C146.608 39.725 146.466 39.0583 146.183 38.475C145.916 37.8917 145.524 37.4333 145.008 37.1C144.491 36.75 143.874 36.575 143.158 36.575C142.441 36.575 141.824 36.75 141.308 37.1C140.808 37.4333 140.424 37.8917 140.158 38.475C139.891 39.0583 139.758 39.725 139.758 40.475V40.55ZM152.547 48C152.38 48 152.239 47.95 152.122 47.85C152.022 47.7333 151.972 47.5917 151.972 47.425V35.6C151.972 35.4333 152.022 35.2917 152.122 35.175C152.239 35.0583 152.38 35 152.547 35H153.697C153.864 35 154.005 35.0583 154.122 35.175C154.239 35.2917 154.297 35.4333 154.297 35.6V36.7C154.63 36.1333 155.089 35.7083 155.672 35.425C156.255 35.1417 156.955 35 157.772 35H158.772C158.939 35 159.072 35.0583 159.172 35.175C159.272 35.275 159.322 35.4083 159.322 35.575V36.6C159.322 36.7667 159.272 36.9 159.172 37C159.072 37.1 158.939 37.15 158.772 37.15H157.272C156.372 37.15 155.664 37.4167 155.147 37.95C154.63 38.4667 154.372 39.175 154.372 40.075V47.425C154.372 47.5917 154.314 47.7333 154.197 47.85C154.08 47.95 153.939 48 153.772 48H152.547ZM165.969 48.25C165.036 48.25 164.236 48.1333 163.569 47.9C162.902 47.6667 162.361 47.3833 161.944 47.05C161.527 46.7167 161.211 46.3833 160.994 46.05C160.794 45.7167 160.686 45.45 160.669 45.25C160.652 45.0667 160.711 44.925 160.844 44.825C160.977 44.725 161.111 44.675 161.244 44.675H162.344C162.444 44.675 162.519 44.6917 162.569 44.725C162.636 44.7417 162.719 44.8083 162.819 44.925C163.036 45.1583 163.277 45.3917 163.544 45.625C163.811 45.8583 164.136 46.05 164.519 46.2C164.919 46.35 165.411 46.425 165.994 46.425C166.844 46.425 167.544 46.2667 168.094 45.95C168.644 45.6167 168.919 45.1333 168.919 44.5C168.919 44.0833 168.802 43.75 168.569 43.5C168.352 43.25 167.952 43.025 167.369 42.825C166.802 42.625 166.019 42.4167 165.019 42.2C164.019 41.9667 163.227 41.6833 162.644 41.35C162.061 41 161.644 40.5917 161.394 40.125C161.144 39.6417 161.019 39.1 161.019 38.5C161.019 37.8833 161.202 37.2917 161.569 36.725C161.936 36.1417 162.469 35.6667 163.169 35.3C163.886 34.9333 164.777 34.75 165.844 34.75C166.711 34.75 167.452 34.8583 168.069 35.075C168.686 35.2917 169.194 35.5667 169.594 35.9C169.994 36.2167 170.294 36.5333 170.494 36.85C170.694 37.1667 170.802 37.4333 170.819 37.65C170.836 37.8167 170.786 37.9583 170.669 38.075C170.552 38.175 170.419 38.225 170.269 38.225H169.219C169.102 38.225 169.002 38.2 168.919 38.15C168.852 38.1 168.786 38.0417 168.719 37.975C168.552 37.7583 168.352 37.5417 168.119 37.325C167.902 37.1083 167.611 36.9333 167.244 36.8C166.894 36.65 166.427 36.575 165.844 36.575C165.011 36.575 164.386 36.75 163.969 37.1C163.552 37.45 163.344 37.8917 163.344 38.425C163.344 38.7417 163.436 39.025 163.619 39.275C163.802 39.525 164.152 39.75 164.669 39.95C165.186 40.15 165.952 40.3667 166.969 40.6C168.069 40.8167 168.936 41.1083 169.569 41.475C170.202 41.8417 170.652 42.2667 170.919 42.75C171.186 43.2333 171.319 43.7917 171.319 44.425C171.319 45.125 171.111 45.7667 170.694 46.35C170.294 46.9333 169.694 47.4 168.894 47.75C168.111 48.0833 167.136 48.25 165.969 48.25Z" fill="#1C1F35"/>
</svg>
