<svg width="87" height="39" viewBox="0 0 87 39" fill="none" xmlns="http://www.w3.org/2000/svg">
<path d="M12.648 0.000488281H16.554V38.5645H11.904L3.906 8.68049V38.5645H0V0.000488281H4.96L12.648 28.8305V0.000488281Z" fill="white"/>
<path d="M24.2391 0.000488281H30.5631C33.8284 0.000488281 35.4611 1.63315 35.4611 4.89849V33.6665C35.4611 36.9318 33.8284 38.5645 30.5631 38.5645H24.2391C20.9738 38.5645 19.3411 36.9318 19.3411 33.6665V4.89849C19.3411 1.63315 20.9738 0.000488281 24.2391 0.000488281ZM31.2451 32.9845V5.58049C31.2451 4.75382 31.1211 4.23715 30.8731 4.03049C30.6251 3.78249 30.1084 3.65849 29.3231 3.65849H25.4791C24.6938 3.65849 24.1771 3.78249 23.9291 4.03049C23.6811 4.23715 23.5571 4.75382 23.5571 5.58049V32.9845C23.5571 33.8112 23.6811 34.3485 23.9291 34.5965C24.1771 34.8032 24.6938 34.9065 25.4791 34.9065H29.3231C30.1084 34.9065 30.6251 34.8032 30.8731 34.5965C31.1211 34.3485 31.2451 33.8112 31.2451 32.9845Z" fill="white"/>
<path d="M42.4889 22.4445V38.5645H38.2729V0.000488281H49.4949C52.7602 0.000488281 54.3929 1.63315 54.3929 4.89849V17.5465C54.3929 20.4812 53.1116 22.0932 50.5489 22.3825L56.3769 38.5645H51.7889L46.1469 22.4445H42.4889ZM42.4889 3.65849V18.7865H48.2549C49.0816 18.7865 49.5982 18.6832 49.8049 18.4765C50.0529 18.2285 50.1769 17.6912 50.1769 16.8645V5.58049C50.1769 4.75382 50.0529 4.23715 49.8049 4.03049C49.5982 3.78249 49.0816 3.65849 48.2549 3.65849H42.4889Z" fill="white"/>
<path d="M70.6529 0.000488281V3.65849H64.4529V38.5645H60.2369V3.65849H54.0369V0.000488281H70.6529Z" fill="white"/>
<path d="M75.2607 0.000488281H81.5847C84.8501 0.000488281 86.4827 1.63315 86.4827 4.89849V33.6665C86.4827 36.9318 84.8501 38.5645 81.5847 38.5645H75.2607C71.9954 38.5645 70.3627 36.9318 70.3627 33.6665V4.89849C70.3627 1.63315 71.9954 0.000488281 75.2607 0.000488281ZM82.2667 32.9845V5.58049C82.2667 4.75382 82.1427 4.23715 81.8947 4.03049C81.6467 3.78249 81.1301 3.65849 80.3447 3.65849H76.5007C75.7154 3.65849 75.1987 3.78249 74.9507 4.03049C74.7027 4.23715 74.5787 4.75382 74.5787 5.58049V32.9845C74.5787 33.8112 74.7027 34.3485 74.9507 34.5965C75.1987 34.8032 75.7154 34.9065 76.5007 34.9065H80.3447C81.1301 34.9065 81.6467 34.8032 81.8947 34.5965C82.1427 34.3485 82.2667 33.8112 82.2667 32.9845Z" fill="white"/>
</svg>
