<svg width="173" height="39" viewBox="0 0 173 39" fill="none" xmlns="http://www.w3.org/2000/svg">
<path d="M0.839844 6.51172C0.839844 4.85807 1.30208 3.47135 2.22656 2.35156C3.15104 1.23177 4.36198 0.671875 5.85938 0.671875C7.36979 0.671875 8.58073 1.23828 9.49219 2.37109C10.4167 3.49089 10.8789 4.87109 10.8789 6.51172C10.8789 8.13932 10.4167 9.51953 9.49219 10.6523C8.58073 11.7721 7.36979 12.332 5.85938 12.332C4.36198 12.332 3.15104 11.7721 2.22656 10.6523C1.30208 9.53255 0.839844 8.15234 0.839844 6.51172ZM1.89453 6.49219C1.89453 7.76823 2.24609 8.90104 2.94922 9.89062C3.66536 10.8672 4.63542 11.3555 5.85938 11.3555C7.08333 11.3555 8.04688 10.8737 8.75 9.91016C9.46615 8.93359 9.82422 7.79427 9.82422 6.49219C9.82422 5.17708 9.46615 4.04427 8.75 3.09375C8.03385 2.13021 7.07031 1.64844 5.85938 1.64844C4.60938 1.64844 3.63281 2.14323 2.92969 3.13281C2.23958 4.10938 1.89453 5.22917 1.89453 6.49219ZM23.4875 1.00391H27.8625V1.92188H25.8703V7.42969C25.8703 8.61458 25.994 9.46094 26.2414 9.96875C26.6841 10.8932 27.5565 11.3555 28.8586 11.3555C30.2128 11.3555 31.0982 10.9453 31.5148 10.125C31.7753 9.65625 31.9055 8.82292 31.9055 7.625V1.92188H29.9133V1.00391H34.2883V1.92188H32.882V7.625C32.882 9.16146 32.6477 10.2552 32.1789 10.9062C31.9185 11.2708 31.5018 11.6029 30.9289 11.9023C30.356 12.1888 29.6724 12.332 28.8781 12.332C27.3807 12.332 26.274 11.8242 25.5578 10.8086C25.1151 10.1706 24.8937 9.04427 24.8937 7.42969V1.92188H23.4875V1.00391ZM47.2094 1.00391H56.5844L56.9164 5.61328L55.9789 5.73047L55.7055 1.92188H52.3852V11.082H54.7484V12H49.0453V11.082H51.4086V1.92188H48.0883L47.8148 5.73047L46.8773 5.61328L47.2094 1.00391ZM69.8961 6.51172C69.8961 4.85807 70.3583 3.47135 71.2828 2.35156C72.2073 1.23177 73.4182 0.671875 74.9156 0.671875C76.426 0.671875 77.637 1.23828 78.5484 2.37109C79.4729 3.49089 79.9352 4.87109 79.9352 6.51172C79.9352 8.13932 79.4729 9.51953 78.5484 10.6523C77.637 11.7721 76.426 12.332 74.9156 12.332C73.4182 12.332 72.2073 11.7721 71.2828 10.6523C70.3583 9.53255 69.8961 8.15234 69.8961 6.51172ZM70.9508 6.49219C70.9508 7.76823 71.3023 8.90104 72.0055 9.89062C72.7216 10.8672 73.6917 11.3555 74.9156 11.3555C76.1396 11.3555 77.1031 10.8737 77.8063 9.91016C78.5224 8.93359 78.8805 7.79427 78.8805 6.49219C78.8805 5.17708 78.5224 4.04427 77.8063 3.09375C77.0901 2.13021 76.1266 1.64844 74.9156 1.64844C73.6656 1.64844 72.6891 2.14323 71.9859 3.13281C71.2958 4.10938 70.9508 5.22917 70.9508 6.49219ZM93.4812 1.00391H102.641L102.739 4.51953H101.86L101.626 1.92188H96.0398V5.73047H99.2039V4.30469H100.102V8.05469H99.2039V6.64844H96.0398V11.082H98.5789V12H93.4812V11.082H95.0633V1.92188H93.4812V1.00391ZM116.266 1.00391H125.641L125.973 5.61328L125.035 5.73047L124.762 1.92188H121.441V11.082H123.805V12H118.102V11.082H120.465V1.92188H117.145L116.871 5.73047L115.934 5.61328L116.266 1.00391ZM138.874 1.00391H142.78V1.92188H141.316V5.86719H146.628V1.92188H145.163V1.00391H149.089V1.92188H147.605V11.082H149.089V12H145.163V11.082H146.628V6.78516H141.316V11.082H142.78V12H138.874V11.082H140.339V1.92188H138.874V1.00391ZM162.245 1.00391H171.522L171.6 4.59766H170.702L170.506 1.92188H164.881V5.73047H168.045V4.30469H168.944V8.05469H168.045V6.64844H164.881V11.082H170.702L170.799 8.40625H171.698V12H162.245V11.082H163.905V1.92188H162.245V1.00391ZM9.02344 26.7891H9.90234C9.78516 27.2969 9.72656 27.7656 9.72656 28.1953C9.72656 28.7943 9.78516 29.569 9.90234 30.5195L9.02344 30.6758C8.91927 29.9076 8.71745 29.2956 8.41797 28.8398C7.89714 28.0456 7.07031 27.6484 5.9375 27.6484C5 27.6484 4.27083 27.8893 3.75 28.3711C3.24219 28.8529 2.98828 29.3802 2.98828 29.9531C2.98828 30.3698 3.08594 30.7214 3.28125 31.0078C3.48958 31.2943 3.77604 31.5091 4.14062 31.6523C4.51823 31.7826 4.82422 31.8737 5.05859 31.9258C5.29297 31.9648 5.59245 32.0039 5.95703 32.043C6.77734 32.1341 7.3763 32.2253 7.75391 32.3164C8.14453 32.3945 8.49609 32.5378 8.80859 32.7461C9.61589 33.293 10.0195 34.0482 10.0195 35.0117C10.0195 36.0664 9.61589 36.8867 8.80859 37.4727C8.0013 38.0456 7.07031 38.332 6.01562 38.332C4.94792 38.332 4.05599 38.0326 3.33984 37.4336C3.28776 37.3815 3.23568 37.3555 3.18359 37.3555C3.11849 37.3555 3.05339 37.4076 2.98828 37.5117C2.9362 37.668 2.8776 37.9609 2.8125 38.3906H1.93359C2.05078 37.8307 2.10938 37.2513 2.10938 36.6523C2.10938 36.3659 2.05078 35.6758 1.93359 34.582H2.8125C2.96875 35.3633 3.1901 35.9427 3.47656 36.3203C3.9974 37.0104 4.79818 37.3555 5.87891 37.3555C6.95964 37.3555 7.74089 37.1276 8.22266 36.6719C8.71745 36.2161 8.96484 35.6888 8.96484 35.0898C8.96484 34.7643 8.89974 34.4844 8.76953 34.25C8.63932 34.0026 8.48307 33.8138 8.30078 33.6836C8.13151 33.5404 7.90365 33.4232 7.61719 33.332C7.34375 33.2409 7.11589 33.1823 6.93359 33.1562C6.7513 33.1302 6.52344 33.1042 6.25 33.0781C5.80729 33.0391 5.44922 33 5.17578 32.9609C4.91536 32.9219 4.55078 32.8307 4.08203 32.6875C3.6263 32.5443 3.26172 32.375 2.98828 32.1797C2.71484 31.9844 2.46745 31.7044 2.24609 31.3398C2.03776 30.9622 1.93359 30.526 1.93359 30.0312C1.93359 29.1198 2.30469 28.332 3.04688 27.668C3.80208 27.0039 4.72656 26.6719 5.82031 26.6719C6.75781 26.6719 7.5651 26.9388 8.24219 27.4727C8.48958 27.6549 8.63932 27.7461 8.69141 27.7461C8.76953 27.7461 8.82161 27.7135 8.84766 27.6484C8.8737 27.5833 8.91927 27.3815 8.98438 27.043C9.01042 26.9388 9.02344 26.8542 9.02344 26.7891ZM25.2258 27.0039H29.425L33.5461 37.082H34.5422V38H30.5383V37.082H32.5305L31.4172 34.3672H26.3195L25.2258 37.082H27.218V38H23.2141V37.082H24.2492L28.0187 27.9219H25.2258V27.0039ZM31.0852 33.5078L28.8781 28.1562L26.6711 33.5078H31.0852ZM46.5844 27.0039H49.9242L55.0609 37.1797H55.4125V27.9219H53.225V27.0039H57.5805V27.9219H56.3109V38.2539H54.5727L49.3383 27.9219H49.0062V37.082H51.2133V38H46.5844V37.082H48.1078V27.9219H46.5844V27.0039ZM69.7203 27.0039H74.6031C75.5797 27.0039 76.3674 27.0951 76.9664 27.2773C77.5654 27.4596 78.1122 27.8568 78.607 28.4688C79.4143 29.4714 79.818 30.7474 79.818 32.2969C79.818 34.3151 79.2776 35.8385 78.1969 36.8672C77.4026 37.6224 76.1786 38 74.525 38H69.7203V37.082H71.2633V27.9219H69.7203V27.0039ZM74.6227 27.9219H72.2398V37.082H74.525C75.8531 37.082 76.8297 36.776 77.4547 36.1641C78.3271 35.2917 78.7633 34.0221 78.7633 32.3555C78.7633 31.0924 78.4573 30.0378 77.8453 29.1914C77.4677 28.6576 77.0445 28.3125 76.5758 28.1562C76.107 28 75.456 27.9219 74.6227 27.9219ZM116.695 27.0039H122.027C123.29 27.0039 124.228 27.2773 124.84 27.8242C125.452 28.3711 125.758 29.0417 125.758 29.8359C125.758 30.9167 125.243 31.724 124.215 32.2578C125.699 32.7005 126.441 33.612 126.441 34.9922C126.441 35.526 126.311 36.0143 126.051 36.457C125.803 36.8997 125.471 37.2318 125.055 37.4531C124.638 37.6745 124.221 37.8242 123.805 37.9023C123.388 37.9674 122.737 38 121.852 38H116.695V37.082H118.316V27.9219H116.695V27.0039ZM121.988 27.9219H119.293V31.8281H121.891C122.49 31.8281 122.997 31.7565 123.414 31.6133C123.831 31.457 124.124 31.2617 124.293 31.0273C124.462 30.793 124.579 30.5781 124.645 30.3828C124.71 30.1875 124.742 29.9922 124.742 29.7969C124.742 29.3672 124.625 29.0091 124.391 28.7227C124.169 28.4362 123.87 28.2474 123.492 28.1562C123.115 28.0521 122.822 27.987 122.613 27.9609C122.418 27.9349 122.21 27.9219 121.988 27.9219ZM121.734 32.7461H119.293V37.082H121.812C122.138 37.082 122.392 37.082 122.574 37.082C122.757 37.069 123.01 37.043 123.336 37.0039C123.674 36.9648 123.941 36.9062 124.137 36.8281C124.345 36.737 124.56 36.6198 124.781 36.4766C125.003 36.3203 125.165 36.1185 125.27 35.8711C125.374 35.6237 125.426 35.3307 125.426 34.9922C125.426 34.224 125.094 33.6576 124.43 33.293C123.766 32.9284 122.867 32.7461 121.734 32.7461ZM139.675 32.5117C139.675 30.8581 140.137 29.4714 141.062 28.3516C141.986 27.2318 143.197 26.6719 144.695 26.6719C146.205 26.6719 147.416 27.2383 148.327 28.3711C149.252 29.4909 149.714 30.8711 149.714 32.5117C149.714 34.1393 149.252 35.5195 148.327 36.6523C147.416 37.7721 146.205 38.332 144.695 38.332C143.197 38.332 141.986 37.7721 141.062 36.6523C140.137 35.5326 139.675 34.1523 139.675 32.5117ZM140.73 32.4922C140.73 33.7682 141.081 34.901 141.784 35.8906C142.501 36.8672 143.471 37.3555 144.695 37.3555C145.918 37.3555 146.882 36.8737 147.585 35.9102C148.301 34.9336 148.659 33.7943 148.659 32.4922C148.659 31.1771 148.301 30.0443 147.585 29.0938C146.869 28.1302 145.905 27.6484 144.695 27.6484C143.445 27.6484 142.468 28.1432 141.765 29.1328C141.075 30.1094 140.73 31.2292 140.73 32.4922ZM162.87 27.0039H166.659V27.9219H165.057L167.733 31.4961L170.467 27.9219H168.983V27.0039H172.557V27.9219H171.561L168.28 32.2188L171.913 37.082H172.928V38H168.983V37.082H170.741L167.733 32.9414L164.588 37.082H166.659V38H162.498V37.082H163.495L167.186 32.2188L163.905 27.9219H162.87V27.0039Z" fill="white"/>
</svg>
