<svg width="84" height="116" viewBox="0 0 84 116" fill="none" xmlns="http://www.w3.org/2000/svg">
<path d="M33.6602 7.16494V1" stroke="#1C1F35" stroke-width="2" stroke-linecap="round" stroke-linejoin="round"/>
<path d="M58.3195 35.9345C54.5692 49.035 37.2046 53.6073 34.1221 54.3265C33.8187 54.4037 33.5008 54.4037 33.1974 54.3265C30.1149 53.6073 12.7503 49.035 9 35.9345V27.1494C8.99996 26.7167 9.13652 26.295 9.39021 25.9445C9.64389 25.594 10.0018 25.3324 10.4128 25.1972L33.0176 17.6452C33.436 17.5164 33.8835 17.5164 34.3019 17.6452L56.9067 25.1972C57.3178 25.3324 57.6756 25.594 57.9293 25.9445C58.183 26.295 58.3195 26.7167 58.3195 27.1494V35.9345Z" stroke="#1C1F35" stroke-width="2" stroke-linecap="round" stroke-linejoin="round"/>
<path d="M34.1271 47.6652C31.6883 47.1036 17.9496 43.5341 14.9824 33.3066" stroke="#1C1F35" stroke-width="2" stroke-linecap="round" stroke-linejoin="round"/>
<path d="M14.9824 9.98267V23.136L33.5288 16.555L52.0752 23.136V9.98267C52.0752 8.32581 50.7321 6.98267 49.0752 6.98267H17.9824C16.3256 6.98267 14.9824 8.32581 14.9824 9.98267Z" fill="#FFD550" stroke="#1C1F35" stroke-width="2"/>
<path d="M33.6602 37.9898V17.5427" stroke="#1C1F35" stroke-width="2" stroke-linecap="round" stroke-linejoin="round"/>
<path d="M38.9141 36.8963L38.9141 28.5205" stroke="#1C1F35" stroke-width="2" stroke-linecap="round" stroke-linejoin="round"/>
<path d="M19.7686 17.7515V11.7688" stroke="#1C1F35" stroke-width="2" stroke-linecap="round" stroke-linejoin="round"/>
<path d="M56.8613 20.1446V9.37573" stroke="#1C1F35" stroke-width="2" stroke-linecap="round" stroke-linejoin="round"/>
</svg>
