<svg width="63" height="63" viewBox="0 0 63 63" fill="none" xmlns="http://www.w3.org/2000/svg">
<circle cx="31.5" cy="31.5" r="31.5" fill="url(#paint0_linear_1_4254)"/>
<path d="M32 23V20" stroke="#1C1F35" stroke-width="2" stroke-linecap="round" stroke-linejoin="round"/>
<path d="M42 34.487C40.4792 39.8216 33.4375 41.6835 32.1875 41.9764C32.0645 42.0079 31.9355 42.0079 31.8125 41.9764C30.5625 41.6835 23.5208 39.8216 22 34.487V30.9096C22 30.7334 22.0554 30.5617 22.1582 30.4189C22.2611 30.2762 22.4062 30.1697 22.5729 30.1146L31.7396 27.0393C31.9093 26.9869 32.0907 26.9869 32.2604 27.0393L41.4271 30.1146C41.5938 30.1697 41.7389 30.2762 41.8418 30.4189C41.9446 30.5617 42 30.7334 42 30.9096V34.487Z" stroke="#1C1F35" stroke-width="2" stroke-linecap="round" stroke-linejoin="round"/>
<path d="M32 35V27" stroke="#1C1F35" stroke-width="2" stroke-linecap="round" stroke-linejoin="round"/>
<path d="M25 29V23.75C25 23.5511 25.0878 23.3603 25.2441 23.2197C25.4004 23.079 25.6123 23 25.8333 23H39.1667C39.3877 23 39.5996 23.079 39.7559 23.2197C39.9122 23.3603 40 23.5511 40 23.75V29" stroke="#1C1F35" stroke-width="2" stroke-linecap="round" stroke-linejoin="round"/>
<defs>
<linearGradient id="paint0_linear_1_4254" x1="-1.78608" y1="13.65" x2="77.4684" y2="19.2782" gradientUnits="userSpaceOnUse">
<stop stop-color="#FFB629"/>
<stop offset="0.507189" stop-color="#FFDA56"/>
<stop offset="1" stop-color="#FFD7A6"/>
</linearGradient>
</defs>
</svg>
