<svg width="257" height="64" viewBox="0 0 257 64" fill="none" xmlns="http://www.w3.org/2000/svg">
<path d="M89.4689 25.5C89.4315 22.4853 89.1982 19.7833 88.7689 17.394C88.4235 18.2527 88.1015 19.1253 87.8029 20.012C87.5135 20.8893 87.0749 22.3313 86.4869 24.338H85.4369C84.9329 22.574 84.5222 21.216 84.2049 20.264C83.8875 19.3027 83.5422 18.36 83.1689 17.436C82.7582 19.788 82.5202 22.476 82.4549 25.5H81.0689C81.1529 21.776 81.5355 18.5093 82.2169 15.7H83.7709C84.3122 16.96 84.7369 18.024 85.0449 18.892C85.3622 19.7507 85.6655 20.7167 85.9549 21.79C86.2722 20.698 86.5895 19.718 86.9069 18.85C87.2242 17.982 87.6489 16.932 88.1809 15.7H89.7349C90.4349 18.556 90.8129 21.8227 90.8689 25.5H89.4689ZM95.6983 25.64C94.597 25.64 93.7616 25.2993 93.1923 24.618C92.623 23.9367 92.3383 22.9427 92.3383 21.636C92.3383 20.3293 92.623 19.34 93.1923 18.668C93.7616 17.996 94.597 17.66 95.6983 17.66C96.7996 17.66 97.635 17.996 98.2043 18.668C98.783 19.34 99.0723 20.3293 99.0723 21.636C99.0723 22.9427 98.783 23.9367 98.2043 24.618C97.635 25.2993 96.7996 25.64 95.6983 25.64ZM95.6983 24.674C96.3983 24.674 96.907 24.4313 97.2243 23.946C97.551 23.4607 97.7143 22.6907 97.7143 21.636C97.7143 20.5907 97.551 19.83 97.2243 19.354C96.907 18.8687 96.3983 18.626 95.6983 18.626C94.9983 18.626 94.485 18.8687 94.1583 19.354C93.841 19.83 93.6823 20.5907 93.6823 21.636C93.6823 22.6907 93.8456 23.4607 94.1723 23.946C94.499 24.4313 95.0076 24.674 95.6983 24.674ZM106.964 23.666C106.964 24.1887 106.973 24.5573 106.992 24.772C107.02 24.9867 107.067 25.1827 107.132 25.36C106.796 25.5 106.446 25.57 106.082 25.57C105.905 25.57 105.783 25.4673 105.718 25.262C105.662 25.0473 105.634 24.6507 105.634 24.072V20.32C105.634 19.7227 105.527 19.298 105.312 19.046C105.107 18.7847 104.761 18.654 104.276 18.654C103.557 18.654 102.811 19.004 102.036 19.704V25.5H100.706V20.39C100.706 19.102 100.65 18.304 100.538 17.996C100.977 17.828 101.322 17.744 101.574 17.744C101.882 17.744 102.036 18.0147 102.036 18.556V18.696C102.484 18.332 102.904 18.0707 103.296 17.912C103.697 17.744 104.122 17.66 104.57 17.66C105.373 17.66 105.97 17.8793 106.362 18.318C106.763 18.7473 106.964 19.4053 106.964 20.292V23.666ZM112.58 20.74H117.62V21.664H112.58V20.74ZM126.626 25.64C125.945 25.64 125.329 25.5467 124.778 25.36C124.237 25.164 123.812 24.898 123.504 24.562C123.196 24.2167 123.042 23.8293 123.042 23.4C123.042 23.1667 123.131 22.98 123.308 22.84C123.495 22.7 123.747 22.6253 124.064 22.616C124.186 23.2413 124.466 23.722 124.904 24.058C125.352 24.3847 125.936 24.548 126.654 24.548C127.373 24.548 127.938 24.394 128.348 24.086C128.768 23.7687 128.978 23.344 128.978 22.812C128.978 22.3547 128.792 21.9907 128.418 21.72C128.045 21.44 127.392 21.174 126.458 20.922C125.674 20.7073 125.054 20.4787 124.596 20.236C124.139 19.984 123.803 19.6947 123.588 19.368C123.383 19.032 123.28 18.6307 123.28 18.164C123.28 17.3613 123.584 16.7267 124.19 16.26C124.797 15.7933 125.628 15.56 126.682 15.56C127.578 15.56 128.33 15.77 128.936 16.19C129.552 16.61 129.968 17.2027 130.182 17.968C130.089 18.0613 129.963 18.1407 129.804 18.206C129.646 18.262 129.492 18.29 129.342 18.29C129.202 18.29 129.081 18.2573 128.978 18.192C128.885 18.1267 128.806 18.0193 128.74 17.87C128.544 17.478 128.264 17.1747 127.9 16.96C127.546 16.7453 127.14 16.638 126.682 16.638C126.02 16.638 125.52 16.7593 125.184 17.002C124.848 17.2447 124.68 17.6087 124.68 18.094C124.68 18.3647 124.741 18.5933 124.862 18.78C124.993 18.9573 125.208 19.1253 125.506 19.284C125.814 19.4333 126.253 19.592 126.822 19.76C127.802 20.0493 128.544 20.32 129.048 20.572C129.552 20.824 129.902 21.1087 130.098 21.426C130.304 21.734 130.406 22.1307 130.406 22.616C130.406 23.2227 130.248 23.7547 129.93 24.212C129.622 24.6693 129.184 25.024 128.614 25.276C128.045 25.5187 127.382 25.64 126.626 25.64ZM137.863 23.26C137.863 23.8013 137.895 24.212 137.961 24.492C138.035 24.772 138.161 25.0147 138.339 25.22C138.208 25.3227 138.049 25.4113 137.863 25.486C137.676 25.5513 137.503 25.584 137.345 25.584C136.915 25.584 136.659 25.2013 136.575 24.436C136.295 24.8187 135.935 25.1173 135.497 25.332C135.067 25.5373 134.582 25.64 134.041 25.64C133.341 25.64 132.776 25.458 132.347 25.094C131.927 24.73 131.717 24.2447 131.717 23.638C131.717 21.9207 133.322 20.9827 136.533 20.824V20.278C136.533 19.7367 136.397 19.3353 136.127 19.074C135.856 18.8127 135.436 18.682 134.867 18.682C134.493 18.682 134.143 18.7567 133.817 18.906C133.49 19.0553 133.117 19.3167 132.697 19.69C132.631 19.7367 132.571 19.76 132.515 19.76C132.393 19.76 132.263 19.6993 132.123 19.578C131.983 19.4473 131.852 19.27 131.731 19.046C132.123 18.6073 132.608 18.2667 133.187 18.024C133.765 17.7813 134.367 17.66 134.993 17.66C135.889 17.66 136.589 17.8933 137.093 18.36C137.606 18.8173 137.863 19.4567 137.863 20.278V23.26ZM134.335 24.674C134.764 24.674 135.165 24.548 135.539 24.296C135.912 24.0347 136.243 23.666 136.533 23.19V21.692C134.218 21.7947 133.061 22.4153 133.061 23.554C133.061 23.918 133.168 24.198 133.383 24.394C133.607 24.5807 133.924 24.674 134.335 24.674ZM143.834 24.422C143.909 24.4593 143.97 24.5247 144.016 24.618C144.063 24.702 144.086 24.8 144.086 24.912C144.086 25.0987 144.016 25.234 143.876 25.318C143.736 25.4207 143.54 25.5 143.288 25.556C143.046 25.612 142.78 25.64 142.49 25.64C141.865 25.64 141.366 25.472 140.992 25.136C140.619 24.7907 140.432 24.3333 140.432 23.764V18.738H139.074V17.8H140.432V15.7H141.762V17.8H143.596V18.738H141.762V23.582C141.762 23.9553 141.837 24.2307 141.986 24.408C142.136 24.576 142.364 24.66 142.672 24.66C143.046 24.66 143.433 24.5807 143.834 24.422ZM151.767 15.672C152.933 15.672 153.792 16.0313 154.343 16.75C154.893 17.4687 155.169 18.4253 155.169 19.62C155.169 20.712 154.959 21.7153 154.539 22.63C154.128 23.5353 153.563 24.2587 152.845 24.8C152.126 25.332 151.333 25.598 150.465 25.598C150.147 25.598 149.919 25.5187 149.779 25.36C149.639 25.192 149.569 24.9493 149.569 24.632C150.633 24.632 151.515 24.3427 152.215 23.764C152.915 23.1853 153.4 22.3967 153.671 21.398C153.4 21.5847 153.087 21.7387 152.733 21.86C152.387 21.9813 152.028 22.042 151.655 22.042C150.712 22.042 149.947 21.7667 149.359 21.216C148.78 20.6653 148.491 19.8907 148.491 18.892C148.491 18.2667 148.635 17.7113 148.925 17.226C149.214 16.7313 149.606 16.3487 150.101 16.078C150.595 15.8073 151.151 15.672 151.767 15.672ZM151.795 21.034C152.597 21.034 153.288 20.7447 153.867 20.166C153.876 20.0447 153.881 19.8627 153.881 19.62C153.881 18.696 153.722 17.9773 153.405 17.464C153.087 16.9507 152.532 16.694 151.739 16.694C151.113 16.694 150.628 16.904 150.283 17.324C149.947 17.7347 149.779 18.276 149.779 18.948C149.779 19.648 149.951 20.1707 150.297 20.516C150.651 20.8613 151.151 21.034 151.795 21.034ZM158.055 25.528C157.532 25.528 157.271 25.2667 157.271 24.744V24.59C157.271 24.0673 157.532 23.806 158.055 23.806H158.195C158.717 23.806 158.979 24.0673 158.979 24.59V24.744C158.979 25.2667 158.717 25.528 158.195 25.528H158.055ZM164.629 25.668C163.397 25.668 162.464 25.2433 161.829 24.394C161.204 23.5353 160.891 22.3267 160.891 20.768C160.891 19.1067 161.204 17.8233 161.829 16.918C162.464 16.0127 163.397 15.56 164.629 15.56C165.861 15.56 166.79 16.0127 167.415 16.918C168.05 17.8233 168.367 19.1067 168.367 20.768C168.367 22.3267 168.05 23.5353 167.415 24.394C166.79 25.2433 165.861 25.668 164.629 25.668ZM164.629 24.618C165.45 24.618 166.057 24.282 166.449 23.61C166.841 22.938 167.037 21.9907 167.037 20.768C167.037 19.4333 166.841 18.4067 166.449 17.688C166.057 16.9693 165.45 16.61 164.629 16.61C163.024 16.61 162.221 17.996 162.221 20.768C162.221 23.3347 163.024 24.618 164.629 24.618ZM173.311 25.668C172.079 25.668 171.145 25.2433 170.511 24.394C169.885 23.5353 169.573 22.3267 169.573 20.768C169.573 19.1067 169.885 17.8233 170.511 16.918C171.145 16.0127 172.079 15.56 173.311 15.56C174.543 15.56 175.471 16.0127 176.097 16.918C176.731 17.8233 177.049 19.1067 177.049 20.768C177.049 22.3267 176.731 23.5353 176.097 24.394C175.471 25.2433 174.543 25.668 173.311 25.668ZM173.311 24.618C174.132 24.618 174.739 24.282 175.131 23.61C175.523 22.938 175.719 21.9907 175.719 20.768C175.719 19.4333 175.523 18.4067 175.131 17.688C174.739 16.9693 174.132 16.61 173.311 16.61C171.705 16.61 170.903 17.996 170.903 20.768C170.903 23.3347 171.705 24.618 173.311 24.618ZM182.102 20.74H187.142V21.664H182.102V20.74ZM197.128 24.548V25.5H192.508V24.548H194.216V17.268C193.982 17.4453 193.73 17.5993 193.46 17.73C193.189 17.8513 192.942 17.912 192.718 17.912C192.512 17.912 192.349 17.856 192.228 17.744C192.106 17.632 192.046 17.478 192.046 17.282C192.046 17.142 192.069 17.0253 192.116 16.932C192.508 16.8947 192.942 16.7687 193.418 16.554C193.894 16.3393 194.314 16.0547 194.678 15.7H195.49V24.548H197.128ZM203.455 20.46C204.146 20.7493 204.627 21.104 204.897 21.524C205.168 21.944 205.303 22.448 205.303 23.036C205.303 23.876 205.005 24.52 204.407 24.968C203.819 25.4067 203.007 25.626 201.971 25.626C200.945 25.626 200.133 25.4067 199.535 24.968C198.947 24.52 198.653 23.876 198.653 23.036C198.653 22.448 198.793 21.944 199.073 21.524C199.353 21.0947 199.834 20.74 200.515 20.46C199.974 20.18 199.568 19.8627 199.297 19.508C199.036 19.144 198.905 18.7007 198.905 18.178C198.905 17.4033 199.185 16.7873 199.745 16.33C200.305 15.8633 201.047 15.63 201.971 15.63C202.905 15.63 203.647 15.8633 204.197 16.33C204.748 16.7873 205.023 17.4033 205.023 18.178C205.023 18.71 204.893 19.158 204.631 19.522C204.379 19.886 203.987 20.1987 203.455 20.46ZM201.971 16.61C201.43 16.61 200.996 16.75 200.669 17.03C200.343 17.3007 200.179 17.6693 200.179 18.136C200.179 18.556 200.333 18.9247 200.641 19.242C200.959 19.55 201.402 19.802 201.971 19.998C202.643 19.7833 203.105 19.5313 203.357 19.242C203.619 18.9527 203.749 18.584 203.749 18.136C203.749 17.6693 203.586 17.3007 203.259 17.03C202.942 16.75 202.513 16.61 201.971 16.61ZM201.971 24.632C202.597 24.632 203.091 24.492 203.455 24.212C203.829 23.9227 204.015 23.5307 204.015 23.036C204.015 22.7187 203.955 22.4527 203.833 22.238C203.721 22.014 203.521 21.8087 203.231 21.622C202.942 21.4353 202.522 21.2393 201.971 21.034C201.253 21.3047 200.735 21.5893 200.417 21.888C200.1 22.1867 199.941 22.5693 199.941 23.036C199.941 23.5307 200.123 23.9227 200.487 24.212C200.851 24.492 201.346 24.632 201.971 24.632ZM208.012 25.528C207.489 25.528 207.228 25.2667 207.228 24.744V24.59C207.228 24.0673 207.489 23.806 208.012 23.806H208.152C208.674 23.806 208.936 24.0673 208.936 24.59V24.744C208.936 25.2667 208.674 25.528 208.152 25.528H208.012ZM214.586 25.668C213.354 25.668 212.421 25.2433 211.786 24.394C211.161 23.5353 210.848 22.3267 210.848 20.768C210.848 19.1067 211.161 17.8233 211.786 16.918C212.421 16.0127 213.354 15.56 214.586 15.56C215.818 15.56 216.747 16.0127 217.372 16.918C218.007 17.8233 218.324 19.1067 218.324 20.768C218.324 22.3267 218.007 23.5353 217.372 24.394C216.747 25.2433 215.818 25.668 214.586 25.668ZM214.586 24.618C215.407 24.618 216.014 24.282 216.406 23.61C216.798 22.938 216.994 21.9907 216.994 20.768C216.994 19.4333 216.798 18.4067 216.406 17.688C216.014 16.9693 215.407 16.61 214.586 16.61C212.981 16.61 212.178 17.996 212.178 20.768C212.178 23.3347 212.981 24.618 214.586 24.618ZM223.268 25.668C222.036 25.668 221.102 25.2433 220.468 24.394C219.842 23.5353 219.53 22.3267 219.53 20.768C219.53 19.1067 219.842 17.8233 220.468 16.918C221.102 16.0127 222.036 15.56 223.268 15.56C224.5 15.56 225.428 16.0127 226.054 16.918C226.688 17.8233 227.006 19.1067 227.006 20.768C227.006 22.3267 226.688 23.5353 226.054 24.394C225.428 25.2433 224.5 25.668 223.268 25.668ZM223.268 24.618C224.089 24.618 224.696 24.282 225.088 23.61C225.48 22.938 225.676 21.9907 225.676 20.768C225.676 19.4333 225.48 18.4067 225.088 17.688C224.696 16.9693 224.089 16.61 223.268 16.61C221.662 16.61 220.86 17.996 220.86 20.768C220.86 23.3347 221.662 24.618 223.268 24.618ZM84.6809 44.64C83.9995 44.64 83.3835 44.5467 82.8329 44.36C82.2915 44.164 81.8669 43.898 81.5589 43.562C81.2509 43.2167 81.0969 42.8293 81.0969 42.4C81.0969 42.1667 81.1855 41.98 81.3629 41.84C81.5495 41.7 81.8015 41.6253 82.1189 41.616C82.2402 42.2413 82.5202 42.722 82.9589 43.058C83.4069 43.3847 83.9902 43.548 84.7089 43.548C85.4275 43.548 85.9922 43.394 86.4029 43.086C86.8229 42.7687 87.0329 42.344 87.0329 41.812C87.0329 41.3547 86.8462 40.9907 86.4729 40.72C86.0995 40.44 85.4462 40.174 84.5129 39.922C83.7289 39.7073 83.1082 39.4787 82.6509 39.236C82.1935 38.984 81.8575 38.6947 81.6429 38.368C81.4375 38.032 81.3349 37.6307 81.3349 37.164C81.3349 36.3613 81.6382 35.7267 82.2449 35.26C82.8515 34.7933 83.6822 34.56 84.7369 34.56C85.6329 34.56 86.3842 34.77 86.9909 35.19C87.6069 35.61 88.0222 36.2027 88.2369 36.968C88.1435 37.0613 88.0175 37.1407 87.8589 37.206C87.7002 37.262 87.5462 37.29 87.3969 37.29C87.2569 37.29 87.1355 37.2573 87.0329 37.192C86.9395 37.1267 86.8602 37.0193 86.7949 36.87C86.5989 36.478 86.3189 36.1747 85.9549 35.96C85.6002 35.7453 85.1942 35.638 84.7369 35.638C84.0742 35.638 83.5749 35.7593 83.2389 36.002C82.9029 36.2447 82.7349 36.6087 82.7349 37.094C82.7349 37.3647 82.7955 37.5933 82.9169 37.78C83.0475 37.9573 83.2622 38.1253 83.5609 38.284C83.8689 38.4333 84.3075 38.592 84.8769 38.76C85.8569 39.0493 86.5989 39.32 87.1029 39.572C87.6069 39.824 87.9569 40.1087 88.1529 40.426C88.3582 40.734 88.4609 41.1307 88.4609 41.616C88.4609 42.2227 88.3022 42.7547 87.9849 43.212C87.6769 43.6693 87.2382 44.024 86.6689 44.276C86.0995 44.5187 85.4369 44.64 84.6809 44.64ZM96.5333 42.82C96.5333 43.4267 96.6033 43.94 96.7433 44.36C96.4819 44.5 96.1926 44.57 95.8753 44.57C95.6513 44.57 95.4879 44.4953 95.3853 44.346C95.2919 44.1967 95.2359 43.9213 95.2173 43.52C94.9466 43.8653 94.5873 44.1407 94.1393 44.346C93.7006 44.542 93.2199 44.64 92.6973 44.64C91.8946 44.64 91.2879 44.4253 90.8773 43.996C90.4759 43.5573 90.2753 42.9087 90.2753 42.05V36.8H91.6053V41.952C91.6053 42.568 91.7126 43.016 91.9273 43.296C92.1513 43.5667 92.5106 43.702 93.0053 43.702C93.4439 43.702 93.8546 43.59 94.2373 43.366C94.6199 43.1327 94.9419 42.806 95.2033 42.386V36.8H96.5333V42.82ZM105.132 42.666C105.132 43.1887 105.141 43.5573 105.16 43.772C105.188 43.9867 105.235 44.1827 105.3 44.36C104.964 44.5 104.614 44.57 104.25 44.57C104.073 44.57 103.951 44.4673 103.886 44.262C103.83 44.0473 103.802 43.6507 103.802 43.072V39.32C103.802 38.7227 103.695 38.298 103.48 38.046C103.275 37.7847 102.929 37.654 102.444 37.654C101.725 37.654 100.979 38.004 100.204 38.704V44.5H98.8739V39.39C98.8739 38.102 98.8179 37.304 98.7059 36.996C99.1446 36.828 99.4899 36.744 99.7419 36.744C100.05 36.744 100.204 37.0147 100.204 37.556V37.696C100.652 37.332 101.072 37.0707 101.464 36.912C101.865 36.744 102.29 36.66 102.738 36.66C103.541 36.66 104.138 36.8793 104.53 37.318C104.931 37.7473 105.132 38.4053 105.132 39.292V42.666ZM113.537 42.344C113.537 43.24 113.63 43.8933 113.817 44.304C113.481 44.4813 113.154 44.57 112.837 44.57C112.529 44.57 112.333 44.2527 112.249 43.618C111.969 43.9727 111.651 44.234 111.297 44.402C110.942 44.5607 110.517 44.64 110.023 44.64C109.024 44.64 108.24 44.29 107.671 43.59C107.101 42.89 106.817 41.9193 106.817 40.678C106.817 39.4273 107.129 38.4473 107.755 37.738C108.38 37.0193 109.243 36.66 110.345 36.66C110.662 36.66 110.993 36.716 111.339 36.828C111.693 36.9307 111.983 37.0613 112.207 37.22V33.426H113.537V42.344ZM110.191 43.674C110.62 43.674 110.998 43.5807 111.325 43.394C111.651 43.198 111.945 42.8993 112.207 42.498V38.298C112.011 38.0927 111.745 37.9247 111.409 37.794C111.082 37.6633 110.751 37.598 110.415 37.598C109.687 37.598 109.127 37.864 108.735 38.396C108.352 38.9187 108.161 39.6793 108.161 40.678C108.161 41.6673 108.333 42.414 108.679 42.918C109.024 43.422 109.528 43.674 110.191 43.674ZM121.47 42.26C121.47 42.8013 121.503 43.212 121.568 43.492C121.643 43.772 121.769 44.0147 121.946 44.22C121.815 44.3227 121.657 44.4113 121.47 44.486C121.283 44.5513 121.111 44.584 120.952 44.584C120.523 44.584 120.266 44.2013 120.182 43.436C119.902 43.8187 119.543 44.1173 119.104 44.332C118.675 44.5373 118.189 44.64 117.648 44.64C116.948 44.64 116.383 44.458 115.954 44.094C115.534 43.73 115.324 43.2447 115.324 42.638C115.324 40.9207 116.929 39.9827 120.14 39.824V39.278C120.14 38.7367 120.005 38.3353 119.734 38.074C119.463 37.8127 119.043 37.682 118.474 37.682C118.101 37.682 117.751 37.7567 117.424 37.906C117.097 38.0553 116.724 38.3167 116.304 38.69C116.239 38.7367 116.178 38.76 116.122 38.76C116.001 38.76 115.87 38.6993 115.73 38.578C115.59 38.4473 115.459 38.27 115.338 38.046C115.73 37.6073 116.215 37.2667 116.794 37.024C117.373 36.7813 117.975 36.66 118.6 36.66C119.496 36.66 120.196 36.8933 120.7 37.36C121.213 37.8173 121.47 38.4567 121.47 39.278V42.26ZM117.942 43.674C118.371 43.674 118.773 43.548 119.146 43.296C119.519 43.0347 119.851 42.666 120.14 42.19V40.692C117.825 40.7947 116.668 41.4153 116.668 42.554C116.668 42.918 116.775 43.198 116.99 43.394C117.214 43.5807 117.531 43.674 117.942 43.674ZM129.458 36.8L126.476 45.088C126.186 45.8813 125.836 46.4507 125.426 46.796C125.024 47.1413 124.497 47.314 123.844 47.314C123.452 47.314 123.139 47.244 122.906 47.104C122.672 46.9733 122.556 46.8007 122.556 46.586C122.556 46.3713 122.649 46.1753 122.836 45.998C122.938 46.0727 123.078 46.1287 123.256 46.166C123.433 46.2127 123.61 46.236 123.788 46.236C124.161 46.236 124.469 46.0867 124.712 45.788C124.964 45.4987 125.188 45.0273 125.384 44.374L122.64 36.8H124.026L126.056 42.666L128.072 36.8H129.458ZM138.218 44.64C136.828 44.64 135.754 44.206 134.998 43.338C134.252 42.4607 133.878 41.2147 133.878 39.6C133.878 37.9947 134.256 36.7533 135.012 35.876C135.768 34.9987 136.837 34.56 138.218 34.56C138.778 34.56 139.301 34.658 139.786 34.854C140.281 35.0407 140.696 35.3067 141.032 35.652C140.976 35.8667 140.883 36.0487 140.752 36.198C140.622 36.3473 140.486 36.422 140.346 36.422C140.216 36.422 140.094 36.38 139.982 36.296C139.702 36.0813 139.418 35.9273 139.128 35.834C138.848 35.7313 138.536 35.68 138.19 35.68C137.238 35.68 136.52 36.0113 136.034 36.674C135.549 37.3273 135.306 38.3027 135.306 39.6C135.306 40.8787 135.549 41.8493 136.034 42.512C136.529 43.1747 137.248 43.506 138.19 43.506C138.62 43.506 139.016 43.4407 139.38 43.31C139.744 43.17 140.09 42.9553 140.416 42.666C140.566 42.7033 140.692 42.7827 140.794 42.904C140.897 43.0253 140.948 43.1607 140.948 43.31C140.948 43.5433 140.822 43.7627 140.57 43.968C140.318 44.164 139.978 44.3273 139.548 44.458C139.128 44.5793 138.685 44.64 138.218 44.64ZM142.9 33.426H144.216V44.5H142.9V33.426ZM149.306 44.64C148.204 44.64 147.369 44.2993 146.8 43.618C146.23 42.9367 145.946 41.9427 145.946 40.636C145.946 39.3293 146.23 38.34 146.8 37.668C147.369 36.996 148.204 36.66 149.306 36.66C150.407 36.66 151.242 36.996 151.812 37.668C152.39 38.34 152.68 39.3293 152.68 40.636C152.68 41.9427 152.39 42.9367 151.812 43.618C151.242 44.2993 150.407 44.64 149.306 44.64ZM149.306 43.674C150.006 43.674 150.514 43.4313 150.832 42.946C151.158 42.4607 151.322 41.6907 151.322 40.636C151.322 39.5907 151.158 38.83 150.832 38.354C150.514 37.8687 150.006 37.626 149.306 37.626C148.606 37.626 148.092 37.8687 147.766 38.354C147.448 38.83 147.29 39.5907 147.29 40.636C147.29 41.6907 147.453 42.4607 147.78 42.946C148.106 43.4313 148.615 43.674 149.306 43.674ZM156.623 44.64C156.138 44.64 155.671 44.57 155.223 44.43C154.775 44.29 154.411 44.108 154.131 43.884C153.861 43.6507 153.725 43.3987 153.725 43.128C153.725 42.96 153.781 42.8153 153.893 42.694C154.015 42.5633 154.169 42.484 154.355 42.456C154.645 42.876 154.971 43.184 155.335 43.38C155.699 43.576 156.147 43.674 156.679 43.674C157.211 43.674 157.613 43.5573 157.883 43.324C158.154 43.0813 158.289 42.764 158.289 42.372C158.289 42.12 158.205 41.9147 158.037 41.756C157.879 41.588 157.673 41.4573 157.421 41.364C157.179 41.2613 156.847 41.154 156.427 41.042C155.877 40.8927 155.433 40.748 155.097 40.608C154.771 40.4587 154.486 40.244 154.243 39.964C154.01 39.6747 153.893 39.2967 153.893 38.83C153.893 38.3633 154.024 37.9667 154.285 37.64C154.547 37.3133 154.883 37.0707 155.293 36.912C155.704 36.744 156.133 36.66 156.581 36.66C157.207 36.66 157.762 36.786 158.247 37.038C158.742 37.2807 159.125 37.6213 159.395 38.06C159.283 38.2187 159.162 38.3447 159.031 38.438C158.901 38.5313 158.779 38.578 158.667 38.578C158.527 38.578 158.401 38.5127 158.289 38.382C157.841 37.8593 157.267 37.598 156.567 37.598C156.138 37.598 155.797 37.696 155.545 37.892C155.293 38.088 155.167 38.3867 155.167 38.788C155.167 39.04 155.247 39.2453 155.405 39.404C155.564 39.5533 155.765 39.6747 156.007 39.768C156.25 39.852 156.577 39.9453 156.987 40.048C157.547 40.1973 157.995 40.342 158.331 40.482C158.667 40.622 158.957 40.8413 159.199 41.14C159.442 41.4387 159.563 41.8353 159.563 42.33C159.563 43.0487 159.297 43.6133 158.765 44.024C158.243 44.4347 157.529 44.64 156.623 44.64ZM167.504 40.118C167.504 40.3047 167.49 40.5473 167.462 40.846H162.086C162.123 41.7327 162.329 42.4233 162.702 42.918C163.075 43.4033 163.589 43.646 164.242 43.646C164.681 43.646 165.045 43.5573 165.334 43.38C165.633 43.2027 165.922 42.8947 166.202 42.456C166.277 42.3533 166.379 42.302 166.51 42.302C166.725 42.302 167.005 42.428 167.35 42.68C167.107 43.296 166.715 43.7767 166.174 44.122C165.633 44.4673 164.989 44.64 164.242 44.64C163.523 44.64 162.898 44.4813 162.366 44.164C161.843 43.8373 161.442 43.3753 161.162 42.778C160.882 42.1713 160.742 41.4573 160.742 40.636C160.742 39.3947 161.055 38.424 161.68 37.724C162.315 37.0147 163.187 36.66 164.298 36.66C165.315 36.66 166.104 36.9633 166.664 37.57C167.224 38.1767 167.504 39.026 167.504 40.118ZM166.146 39.95C166.146 38.41 165.516 37.64 164.256 37.64C163.631 37.64 163.136 37.836 162.772 38.228C162.408 38.62 162.189 39.194 162.114 39.95H166.146ZM175.265 42.344C175.265 43.24 175.359 43.8933 175.545 44.304C175.209 44.4813 174.883 44.57 174.565 44.57C174.257 44.57 174.061 44.2527 173.977 43.618C173.697 43.9727 173.38 44.234 173.025 44.402C172.671 44.5607 172.246 44.64 171.751 44.64C170.753 44.64 169.969 44.29 169.399 43.59C168.83 42.89 168.545 41.9193 168.545 40.678C168.545 39.4273 168.858 38.4473 169.483 37.738C170.109 37.0193 170.972 36.66 172.073 36.66C172.391 36.66 172.722 36.716 173.067 36.828C173.422 36.9307 173.711 37.0613 173.935 37.22V33.426H175.265V42.344ZM171.919 43.674C172.349 43.674 172.727 43.5807 173.053 43.394C173.38 43.198 173.674 42.8993 173.935 42.498V38.298C173.739 38.0927 173.473 37.9247 173.137 37.794C172.811 37.6633 172.479 37.598 172.143 37.598C171.415 37.598 170.855 37.864 170.463 38.396C170.081 38.9187 169.889 39.6793 169.889 40.678C169.889 41.6673 170.062 42.414 170.407 42.918C170.753 43.422 171.257 43.674 171.919 43.674Z" fill="white"/>
<circle cx="31.6309" cy="32" r="31" fill="#111C55" stroke="#273270"/>
<path d="M32.1309 42.5C38.206 42.5 43.1309 37.5751 43.1309 31.5C43.1309 25.4249 38.206 20.5 32.1309 20.5C26.0557 20.5 21.1309 25.4249 21.1309 31.5C21.1309 37.5751 26.0557 42.5 32.1309 42.5Z" stroke="#F6B426"/>
<path d="M32.1309 22.5V31.7058L37.1309 35.5" stroke="#F6B426"/>
</svg>
