<svg width="23" height="18" viewBox="0 0 23 18" fill="none" xmlns="http://www.w3.org/2000/svg">
<path d="M22.3392 2.58411C21.5309 2.93507 20.6757 3.16629 19.8006 3.27047C20.7203 2.73232 21.4119 1.87737 21.7457 0.865968C20.8762 1.37405 19.9265 1.73054 18.9373 1.92018C18.5207 1.48393 18.0198 1.13688 17.4648 0.900127C16.9099 0.663374 16.3125 0.541862 15.7091 0.542976C13.2661 0.542976 11.289 2.4899 11.289 4.88991C11.2873 5.22374 11.3256 5.55658 11.4031 5.88132C9.65123 5.79925 7.93583 5.35268 6.36661 4.57017C4.79738 3.78767 3.40889 2.68646 2.28996 1.337C1.89741 1.99829 1.68981 2.7528 1.68886 3.52168C1.68886 5.02898 2.47582 6.36132 3.66411 7.14188C2.96008 7.12519 2.27048 6.93898 1.65384 6.59908V6.65291C1.65384 8.76133 3.18017 10.5154 5.20032 10.9146C4.82043 11.0158 4.42897 11.0671 4.03582 11.0671C3.75685 11.0676 3.47851 11.0406 3.20486 10.9864C3.76646 12.7135 5.40099 13.9696 7.33718 14.0055C5.76388 15.2171 3.83228 15.872 1.84598 15.8672C1.49341 15.8666 1.14116 15.8457 0.791016 15.8044C2.81169 17.0937 5.16056 17.7757 7.55805 17.7692C15.6997 17.7692 20.1476 11.1434 20.1476 5.39683C20.1476 5.20842 20.1427 5.02001 20.1337 4.83608C20.997 4.22242 21.7439 3.45982 22.3392 2.58411Z" fill="#1C1F35"/>
</svg>
