<svg width="77" height="126" viewBox="0 0 77 126" fill="none" xmlns="http://www.w3.org/2000/svg">
<path d="M42.0713 28.7858V18.8215H47.6681C50.5026 18.8215 53.0574 20.5309 54.1387 23.1511L56.1791 28.0951C56.3149 28.4242 56.073 28.7858 55.7169 28.7858H42.0713Z" fill="#FFD550" stroke="#1C1F35" stroke-width="2"/>
<path d="M4.42871 35.4285H42.0716" stroke="#1C1F35" stroke-width="2" stroke-linecap="round" stroke-linejoin="round"/>
<path d="M45.3929 53.1431C49.0616 53.1431 52.0357 50.169 52.0357 46.5003C52.0357 42.8315 49.0616 39.8574 45.3929 39.8574C41.7241 39.8574 38.75 42.8315 38.75 46.5003C38.75 50.169 41.7241 53.1431 45.3929 53.1431Z" stroke="#1C1F35" stroke-width="2" stroke-linecap="round" stroke-linejoin="round"/>
<path d="M16.6067 53.1431C20.2755 53.1431 23.2496 50.169 23.2496 46.5003C23.2496 42.8315 20.2755 39.8574 16.6067 39.8574C12.938 39.8574 9.96387 42.8315 9.96387 46.5003C9.96387 50.169 12.938 53.1431 16.6067 53.1431Z" fill="#FFD550" stroke="#1C1F35" stroke-width="2" stroke-linecap="round" stroke-linejoin="round"/>
<path d="M38.75 45.3926H23.25" stroke="#1C1F35" stroke-width="2" stroke-linecap="round" stroke-linejoin="round"/>
<path d="M9.90907 45.3926H6.31085C5.81168 45.3926 5.33295 45.1884 4.97998 44.8251C4.62701 44.4617 4.42871 43.9689 4.42871 43.4551V16.3301C4.42871 15.8162 4.62701 15.3234 4.97998 14.9601C5.33295 14.5967 5.81168 14.3926 6.31085 14.3926H42.0716V40.3551" stroke="#1C1F35" stroke-width="2" stroke-linecap="round" stroke-linejoin="round"/>
<path d="M42.0713 28.7861H57.5713V43.548C57.5713 44.0374 57.3672 44.5068 57.0038 44.8528C56.6405 45.1989 56.1476 45.3933 55.6338 45.3933H51.8972" stroke="#1C1F35" stroke-width="2" stroke-linecap="round" stroke-linejoin="round"/>
<path d="M8.85742 28.0947L8.85742 18.8215" stroke="#1C1F35" stroke-width="2" stroke-linecap="round" stroke-linejoin="round"/>
<path d="M28.7854 31L38.0586 31" stroke="#1C1F35" stroke-width="2" stroke-linecap="round" stroke-linejoin="round"/>
<path d="M28.786 49.7148L32.1074 49.7148" stroke="#1C1F35" stroke-width="2" stroke-linecap="round" stroke-linejoin="round"/>
</svg>
